<?xml version="1.0" encoding="utf-8"?>
<!-- Generator: Adobe Illustrator 22.1.0, SVG Export Plug-In . SVG Version: 6.00 Build 0)  -->
<svg version="1.1" id="Capa_1" xmlns="http://www.w3.org/2000/svg" xmlns:xlink="http://www.w3.org/1999/xlink" x="0px" y="0px"
	 viewBox="0 0 365.9 124" style="enable-background:new 0 0 365.9 124;" xml:space="preserve">
<style type="text/css">
	.st0{fill:#2875B6;}
	.st1{fill:#00CDB5;}
	.st2{fill:#FFFFFF;}
</style>
<g>
	<g>
		<path class="st0" d="M-1516-56.6c-0.3-0.4-0.7-0.7-1-0.8c-0.3-0.1-0.7-0.2-1.1-0.2c-0.6,0-1.1,0.1-1.5,0.3
			c-0.5,0.2-0.9,0.5-1.3,0.8c-0.4,0.3-0.7,0.7-0.9,1.2c-0.2,0.5-0.4,1-0.5,1.5c-0.1,0.6-0.1,1.1,0,1.6c0.1,0.5,0.3,0.9,0.6,1.2
			c0.3,0.4,0.6,0.6,1,0.8c0.4,0.2,0.9,0.3,1.5,0.3c0.4,0,0.9-0.1,1.3-0.3c0.4-0.2,0.9-0.5,1.3-1l1.4,1.1c-0.6,0.7-1.2,1.1-2,1.4
			c-0.7,0.3-1.5,0.5-2.3,0.5c-0.8,0-1.6-0.1-2.2-0.4c-0.7-0.3-1.2-0.6-1.6-1.1c-0.4-0.5-0.7-1.1-0.9-1.7c-0.2-0.7-0.2-1.4-0.1-2.3
			c0.1-0.8,0.4-1.6,0.7-2.3c0.4-0.7,0.8-1.3,1.4-1.8s1.2-0.9,1.9-1.1c0.7-0.3,1.5-0.4,2.3-0.4c0.7,0,1.4,0.1,1.9,0.4
			c0.6,0.3,1.1,0.7,1.5,1.3L-1516-56.6z"/>
		<path class="st0" d="M-1503.5-53.7c0.1-0.8,0.4-1.6,0.7-2.3c0.4-0.7,0.8-1.3,1.4-1.8s1.2-0.9,1.9-1.1c0.7-0.3,1.5-0.4,2.3-0.4
			c0.8,0,1.6,0.1,2.2,0.4c0.7,0.3,1.2,0.6,1.6,1.1c0.4,0.5,0.7,1.1,0.9,1.8c0.2,0.7,0.2,1.5,0.1,2.3c-0.1,0.8-0.4,1.6-0.7,2.3
			c-0.4,0.7-0.8,1.3-1.4,1.8c-0.6,0.5-1.2,0.9-1.9,1.1s-1.5,0.4-2.3,0.4c-0.8,0-1.6-0.1-2.2-0.4c-0.7-0.3-1.2-0.6-1.6-1.1
			c-0.4-0.5-0.7-1.1-0.9-1.7C-1503.6-52.1-1503.6-52.9-1503.5-53.7z M-1501.5-53.8c-0.1,0.6-0.1,1.1,0,1.6c0.1,0.5,0.3,0.9,0.6,1.2
			c0.3,0.4,0.6,0.6,1,0.8c0.4,0.2,0.9,0.3,1.5,0.3c0.6,0,1.1-0.1,1.5-0.3c0.5-0.2,0.9-0.5,1.3-0.8c0.4-0.4,0.7-0.8,0.9-1.2
			s0.4-1,0.5-1.6c0.1-0.5,0.1-1-0.1-1.5c-0.1-0.5-0.3-0.9-0.6-1.2c-0.3-0.3-0.6-0.6-1-0.8c-0.4-0.2-0.9-0.3-1.5-0.3
			s-1.1,0.1-1.5,0.3c-0.5,0.2-0.9,0.5-1.3,0.8c-0.4,0.3-0.7,0.7-0.9,1.2C-1501.3-54.9-1501.4-54.4-1501.5-53.8z"/>
		<path class="st0" d="M-1479.2-59.1h2.5l4,7.9h0l1.1-7.9h1.9l-1.5,10.6h-2.4l-4.1-8.1h0l-1.1,8.1h-1.9L-1479.2-59.1z"/>
		<path class="st0" d="M-1454.8-57.4h-3.3l0.2-1.7h8.4l-0.2,1.7h-3.3l-1.2,8.9h-1.9L-1454.8-57.4z"/>
		<path class="st0" d="M-1435.6-59.1h1.6l3.1,10.6h-2.2l-0.7-2.4h-4.6l-1.3,2.4h-2.1L-1435.6-59.1z M-1434.1-52.5l-1-4.3l-2.3,4.3
			H-1434.1z"/>
		<path class="st0" d="M-1410.7-56.6c-0.3-0.4-0.7-0.7-1-0.8c-0.3-0.1-0.7-0.2-1.1-0.2c-0.6,0-1.1,0.1-1.5,0.3
			c-0.5,0.2-0.9,0.5-1.3,0.8c-0.4,0.3-0.7,0.7-0.9,1.2c-0.2,0.5-0.4,1-0.5,1.5c-0.1,0.6-0.1,1.1,0,1.6c0.1,0.5,0.3,0.9,0.6,1.2
			c0.3,0.4,0.6,0.6,1,0.8c0.4,0.2,0.9,0.3,1.5,0.3c0.4,0,0.9-0.1,1.3-0.3c0.4-0.2,0.9-0.5,1.3-1l1.4,1.1c-0.6,0.7-1.2,1.1-2,1.4
			c-0.7,0.3-1.5,0.5-2.3,0.5c-0.8,0-1.6-0.1-2.2-0.4c-0.7-0.3-1.2-0.6-1.6-1.1c-0.4-0.5-0.7-1.1-0.9-1.7c-0.2-0.7-0.2-1.4-0.1-2.3
			c0.1-0.8,0.4-1.6,0.7-2.3c0.4-0.7,0.8-1.3,1.4-1.8s1.2-0.9,1.9-1.1c0.7-0.3,1.5-0.4,2.3-0.4c0.7,0,1.4,0.1,1.9,0.4
			c0.6,0.3,1.1,0.7,1.5,1.3L-1410.7-56.6z"/>
		<path class="st0" d="M-1395-57.4h-3.3l0.2-1.7h8.4l-0.2,1.7h-3.3l-1.2,8.9h-1.9L-1395-57.4z"/>
		<path class="st0" d="M-1355.9-56.6c-0.3-0.4-0.7-0.7-1-0.8c-0.3-0.1-0.7-0.2-1.1-0.2c-0.6,0-1.1,0.1-1.5,0.3
			c-0.5,0.2-0.9,0.5-1.3,0.8c-0.4,0.3-0.7,0.7-0.9,1.2c-0.2,0.5-0.4,1-0.5,1.5c-0.1,0.6-0.1,1.1,0,1.6c0.1,0.5,0.3,0.9,0.6,1.2
			c0.3,0.4,0.6,0.6,1,0.8c0.4,0.2,0.9,0.3,1.5,0.3c0.4,0,0.9-0.1,1.3-0.3c0.4-0.2,0.9-0.5,1.3-1l1.4,1.1c-0.6,0.7-1.2,1.1-2,1.4
			c-0.7,0.3-1.5,0.5-2.3,0.5c-0.8,0-1.6-0.1-2.2-0.4c-0.7-0.3-1.2-0.6-1.6-1.1c-0.4-0.5-0.7-1.1-0.9-1.7c-0.2-0.7-0.2-1.4-0.1-2.3
			c0.1-0.8,0.4-1.6,0.7-2.3c0.4-0.7,0.8-1.3,1.4-1.8s1.2-0.9,1.9-1.1c0.7-0.3,1.5-0.4,2.3-0.4c0.7,0,1.4,0.1,1.9,0.4
			c0.6,0.3,1.1,0.7,1.5,1.3L-1355.9-56.6z"/>
		<path class="st0" d="M-1342.1-59.1h7l-0.2,1.7h-5.1l-0.4,2.6h4.9l-0.2,1.7h-4.9l-0.4,2.9h5.4l-0.2,1.7h-7.3L-1342.1-59.1z"/>
		<path class="st0" d="M-1322.4-59.1h2.5l4,7.9h0l1.1-7.9h1.9l-1.5,10.6h-2.4l-4.1-8.1h0l-1.1,8.1h-1.9L-1322.4-59.1z"/>
		<path class="st0" d="M-1298-57.4h-3.3l0.2-1.7h8.4l-0.2,1.7h-3.3l-1.2,8.9h-1.9L-1298-57.4z"/>
		<path class="st0" d="M-1280.9-59.1h7l-0.2,1.7h-5.1l-0.4,2.6h4.9l-0.2,1.7h-4.9l-0.4,2.9h5.4l-0.2,1.7h-7.3L-1280.9-59.1z"/>
		<path class="st0" d="M-1261.2-59.1h3.7c0.5,0,1,0,1.5,0.1c0.5,0.1,0.9,0.3,1.2,0.5c0.3,0.2,0.6,0.5,0.8,0.9s0.2,0.9,0.1,1.5
			c-0.1,0.4-0.2,0.7-0.3,1.1c-0.2,0.3-0.4,0.6-0.6,0.9c-0.2,0.2-0.5,0.5-0.9,0.6s-0.7,0.3-1.1,0.3l2.2,4.7h-2.3l-1.8-4.5h-1.4
			l-0.6,4.5h-1.9L-1261.2-59.1z M-1258.5-54.6c0.3,0,0.5,0,0.8,0c0.3,0,0.5-0.1,0.8-0.2c0.2-0.1,0.4-0.2,0.6-0.4s0.3-0.5,0.3-0.8
			c0-0.3,0-0.6-0.1-0.8s-0.3-0.3-0.5-0.4c-0.2-0.1-0.4-0.2-0.7-0.2c-0.2,0-0.5,0-0.7,0h-1.6l-0.4,2.9H-1258.5z"/>
	</g>
	<g>
		<path class="st1" d="M-1319.8-104.1h10.5l-0.7,4.8h0.1c0.4-0.7,1-1.4,1.8-2c0.7-0.7,1.6-1.3,2.5-1.8c0.9-0.5,2-1,3.1-1.3
			c1.2-0.3,2.4-0.5,3.7-0.5c2.8,0,5,0.4,6.6,1.3c1.6,0.9,2.8,2,3.5,3.5c0.7,1.5,1.1,3.3,1.2,5.3c0,2-0.1,4.3-0.4,6.6l-2.7,19.6h-11
			l2.4-17.4c0.1-1,0.3-2.1,0.4-3.2c0.1-1.1,0-2.1-0.2-3c-0.2-0.9-0.7-1.7-1.4-2.3s-1.7-0.9-3.1-0.9c-1.4,0-2.6,0.3-3.5,0.8
			c-0.9,0.5-1.7,1.2-2.3,2c-0.6,0.9-1,1.8-1.3,2.9c-0.3,1.1-0.5,2.2-0.7,3.4l-2.5,17.7h-10.9L-1319.8-104.1z"/>
		<path class="st1" d="M-1250-74.8c-2,2.2-4.5,4-7.3,5.2c-2.8,1.2-5.7,1.8-8.6,1.8c-2.7,0-5.2-0.4-7.5-1.3c-2.3-0.9-4.2-2.1-5.7-3.8
			c-1.5-1.6-2.7-3.6-3.4-5.9c-0.7-2.3-0.9-4.8-0.5-7.7c0.4-2.8,1.3-5.4,2.6-7.7c1.3-2.3,3-4.2,5-5.9c2-1.6,4.3-2.9,6.8-3.8
			c2.5-0.9,5.2-1.3,7.9-1.3c2.5,0,4.8,0.4,6.7,1.3c1.9,0.9,3.5,2.1,4.7,3.8c1.2,1.6,2.1,3.6,2.5,5.9c0.5,2.3,0.5,4.8,0.1,7.7
			l-0.5,3.4h-25.4c0.1,2.1,0.9,3.8,2.2,5c1.3,1.2,3,1.9,5.1,1.9c1.8,0,3.4-0.4,4.7-1.2c1.3-0.8,2.6-1.8,3.7-3.1L-1250-74.8z
			 M-1257-90.4c0.3-1.8-0.1-3.4-1.2-4.7c-1.1-1.3-2.6-2-4.6-2c-1.2,0-2.3,0.2-3.3,0.6c-1,0.4-1.8,0.9-2.6,1.5
			c-0.7,0.6-1.3,1.3-1.8,2.1c-0.5,0.8-0.8,1.6-1,2.5H-1257z"/>
		<g>
			<path class="st1" d="M-1338.8-92.6l-3.4,24h10.9l2.8-19.9C-1331.5-90.3-1335-91.7-1338.8-92.6z"/>
			<path class="st1" d="M-1327.4-95.6l1.2-8.5h-11l-0.7,4.8C-1334.1-98.4-1330.6-97.2-1327.4-95.6z"/>
		</g>
		<g>
			<path class="st1" d="M-1348.9-93.7c-2.5,0-4.9,0.2-7.3,0.6l-3.4,24.5h10.9l3.5-25C-1346.5-93.7-1347.7-93.7-1348.9-93.7z"/>
			<path class="st1" d="M-1348.9-100.4c1.6,0,3.1,0.1,4.6,0.2l3.3-23.6h-11l-3.3,23.8C-1353.2-100.3-1351.1-100.4-1348.9-100.4z"/>
		</g>
	</g>
	<g>
		<path class="st0" d="M-1520.6-104.1h10.5l-0.7,4.8h0.1c0.4-0.7,1-1.4,1.8-2c0.7-0.7,1.6-1.3,2.5-1.8c0.9-0.5,2-1,3.1-1.3
			c1.2-0.3,2.4-0.5,3.7-0.5c2.5,0,4.6,0.5,6.4,1.5c1.8,1,3,2.6,3.6,4.8c1.6-2.3,3.4-3.9,5.3-4.9c1.9-1,4.2-1.5,6.8-1.5
			c2.4,0,4.3,0.4,5.8,1.2c1.5,0.8,2.7,1.9,3.4,3.3c0.8,1.4,1.2,3,1.4,4.9c0.1,1.9,0.1,3.9-0.2,6l-2.9,21h-11l2.8-20.7
			c0.2-1.7,0.1-3.1-0.4-4.3c-0.5-1.2-1.7-1.8-3.5-1.8c-1.3,0-2.3,0.2-3.2,0.6c-0.9,0.4-1.7,1-2.3,1.7c-0.6,0.7-1.1,1.6-1.5,2.6
			c-0.3,1-0.6,2-0.7,3.1l-2.6,18.8h-11l2.6-18.8c0.1-0.6,0.2-1.4,0.3-2.3c0.1-0.9,0-1.8-0.1-2.6c-0.2-0.8-0.5-1.5-1.1-2.1
			c-0.6-0.6-1.5-0.9-2.8-0.9c-1.4,0-2.6,0.3-3.5,0.8c-0.9,0.5-1.7,1.2-2.3,2c-0.6,0.9-1,1.8-1.3,2.9c-0.3,1.1-0.5,2.2-0.7,3.4
			l-2.5,17.7h-10.9L-1520.6-104.1z"/>
		<path class="st0" d="M-1429.4-68.6h-10.5l0.7-4.8h-0.1c-0.5,0.7-1.1,1.4-1.8,2c-0.7,0.7-1.5,1.3-2.5,1.8c-0.9,0.5-2,1-3.2,1.3
			c-1.2,0.3-2.4,0.5-3.7,0.5c-2.8,0-5-0.4-6.6-1.3c-1.6-0.9-2.8-2-3.5-3.5c-0.7-1.5-1.1-3.3-1.2-5.3c0-2,0.1-4.3,0.4-6.6l2.8-19.6
			h11l-2.5,17.4c-0.1,1-0.3,2.1-0.4,3.2c-0.1,1.1,0,2.1,0.2,3c0.2,0.9,0.7,1.7,1.4,2.3c0.7,0.6,1.7,0.9,3.1,0.9
			c1.4,0,2.6-0.3,3.5-0.8c0.9-0.5,1.7-1.2,2.3-2c0.6-0.9,1-1.8,1.4-2.9c0.3-1.1,0.5-2.2,0.7-3.4l2.5-17.7h11L-1429.4-68.6z"/>
		<path class="st0" d="M-1415.2-123.8h11l-7.7,55.2h-10.9L-1415.2-123.8z"/>
		<path class="st0" d="M-1377.7-95.3h-9.6l-1.7,11.8c-0.1,1-0.2,1.9-0.2,2.7c0,0.8,0.1,1.5,0.4,2.1c0.3,0.6,0.7,1,1.4,1.4
			c0.7,0.3,1.6,0.5,2.7,0.5c0.6,0,1.4-0.1,2.3-0.2c0.9-0.1,1.7-0.4,2.2-0.8l-1.2,9.1c-1.3,0.4-2.6,0.7-3.9,0.9
			c-1.3,0.1-2.6,0.2-3.9,0.2c-1.9,0-3.5-0.2-5-0.6c-1.5-0.4-2.8-1-3.8-1.9c-1-0.9-1.8-2-2.3-3.3c-0.5-1.4-0.6-3-0.3-5l2.4-16.9h-7
			l1.2-8.8h7l1.5-10.5h10.9l-1.5,10.5h9.6L-1377.7-95.3z"/>
		<g>
			<path class="st0" d="M-1362-98.7l0.7-5.4h-11l-1.5,10.4C-1370.3-95.9-1366.3-97.6-1362-98.7z"/>
			<path class="st0" d="M-1375.1-83.9l-2.1,15.3h10.9l3.2-22.8C-1368-89.7-1372.2-87.1-1375.1-83.9z"/>
		</g>
	</g>
</g>
<g>
	<polygon class="st1" points="-1225.5,119 -1563.4,119 -1546.4,5 -1208.5,5 	"/>
	<g>
		<path class="st0" d="M-1520.6,43.9h10.5l-0.7,4.8h0.1c0.4-0.7,1-1.4,1.8-2c0.7-0.7,1.6-1.3,2.5-1.8c0.9-0.5,2-1,3.1-1.3
			c1.2-0.3,2.4-0.5,3.7-0.5c2.5,0,4.6,0.5,6.4,1.5c1.8,1,3,2.6,3.6,4.8c1.6-2.3,3.4-3.9,5.3-4.9c1.9-1,4.2-1.5,6.8-1.5
			c2.4,0,4.3,0.4,5.8,1.2c1.5,0.8,2.7,1.9,3.4,3.3c0.8,1.4,1.2,3,1.4,4.9c0.1,1.9,0.1,3.9-0.2,6l-2.9,21h-11l2.8-20.7
			c0.2-1.7,0.1-3.1-0.4-4.3c-0.5-1.2-1.7-1.8-3.5-1.8c-1.3,0-2.3,0.2-3.2,0.6c-0.9,0.4-1.7,1-2.3,1.7c-0.6,0.7-1.1,1.6-1.5,2.6
			c-0.3,1-0.6,2-0.7,3.1l-2.6,18.8h-11l2.6-18.8c0.1-0.6,0.2-1.4,0.3-2.3c0.1-0.9,0-1.8-0.1-2.6c-0.2-0.8-0.5-1.5-1.1-2.1
			c-0.6-0.6-1.5-0.9-2.8-0.9c-1.4,0-2.6,0.3-3.5,0.8c-0.9,0.5-1.7,1.2-2.3,2c-0.6,0.9-1,1.8-1.3,2.9c-0.3,1.1-0.5,2.2-0.7,3.4
			l-2.5,17.7h-10.9L-1520.6,43.9z"/>
		<path class="st0" d="M-1429.4,79.4h-10.5l0.7-4.8h-0.1c-0.5,0.7-1.1,1.4-1.8,2c-0.7,0.7-1.5,1.3-2.5,1.8c-0.9,0.5-2,1-3.2,1.3
			c-1.2,0.3-2.4,0.5-3.7,0.5c-2.8,0-5-0.4-6.6-1.3c-1.6-0.9-2.8-2-3.5-3.5c-0.7-1.5-1.1-3.3-1.2-5.3c0-2,0.1-4.3,0.4-6.6l2.8-19.6
			h11l-2.5,17.4c-0.1,1-0.3,2.1-0.4,3.2c-0.1,1.1,0,2.1,0.2,3c0.2,0.9,0.7,1.7,1.4,2.3c0.7,0.6,1.7,0.9,3.1,0.9
			c1.4,0,2.6-0.3,3.5-0.8c0.9-0.5,1.7-1.2,2.3-2c0.6-0.9,1-1.8,1.4-2.9c0.3-1.1,0.5-2.2,0.7-3.4l2.5-17.7h11L-1429.4,79.4z"/>
		<path class="st0" d="M-1415.2,24.2h11l-7.7,55.2h-10.9L-1415.2,24.2z"/>
		<path class="st0" d="M-1377.7,52.7h-9.6l-1.7,11.8c-0.1,1-0.2,1.9-0.2,2.7c0,0.8,0.1,1.5,0.4,2.1c0.3,0.6,0.7,1,1.4,1.4
			c0.7,0.3,1.6,0.5,2.7,0.5c0.6,0,1.4-0.1,2.3-0.2c0.9-0.1,1.7-0.4,2.2-0.8l-1.2,9.1c-1.3,0.4-2.6,0.7-3.9,0.9
			c-1.3,0.1-2.6,0.2-3.9,0.2c-1.9,0-3.5-0.2-5-0.6c-1.5-0.4-2.8-1-3.8-1.9c-1-0.9-1.8-2-2.3-3.3c-0.5-1.4-0.6-3-0.3-5l2.4-16.9h-7
			l1.2-8.8h7l1.5-10.5h10.9l-1.5,10.5h9.6L-1377.7,52.7z"/>
		<path class="st0" d="M-1319.8,43.9h10.5l-0.7,4.8h0.1c0.4-0.7,1-1.4,1.8-2c0.7-0.7,1.6-1.3,2.5-1.8c0.9-0.5,2-1,3.1-1.3
			c1.2-0.3,2.4-0.5,3.7-0.5c2.8,0,5,0.4,6.6,1.3c1.6,0.9,2.8,2,3.5,3.5c0.7,1.5,1.1,3.3,1.2,5.3c0,2-0.1,4.3-0.4,6.6l-2.7,19.6h-11
			l2.4-17.4c0.1-1,0.3-2.1,0.4-3.2c0.1-1.1,0-2.1-0.2-3c-0.2-0.9-0.7-1.7-1.4-2.3s-1.7-0.9-3.1-0.9c-1.4,0-2.6,0.3-3.5,0.8
			c-0.9,0.5-1.7,1.2-2.3,2c-0.6,0.9-1,1.8-1.3,2.9c-0.3,1.1-0.5,2.2-0.7,3.4l-2.5,17.7h-10.9L-1319.8,43.9z"/>
		<path class="st0" d="M-1250,73.2c-2,2.2-4.5,4-7.3,5.2c-2.8,1.2-5.7,1.8-8.6,1.8c-2.7,0-5.2-0.4-7.5-1.3c-2.3-0.9-4.2-2.1-5.7-3.8
			c-1.5-1.6-2.7-3.6-3.4-5.9c-0.7-2.3-0.9-4.8-0.5-7.7c0.4-2.8,1.3-5.4,2.6-7.7c1.3-2.3,3-4.2,5-5.9c2-1.6,4.3-2.9,6.8-3.8
			c2.5-0.9,5.2-1.3,7.9-1.3c2.5,0,4.8,0.4,6.7,1.3c1.9,0.9,3.5,2.1,4.7,3.8c1.2,1.6,2.1,3.6,2.5,5.9c0.5,2.3,0.5,4.8,0.1,7.7
			l-0.5,3.4h-25.4c0.1,2.1,0.9,3.8,2.2,5c1.3,1.2,3,1.9,5.1,1.9c1.8,0,3.4-0.4,4.7-1.2c1.3-0.8,2.6-1.8,3.7-3.1L-1250,73.2z
			 M-1257,57.6c0.3-1.8-0.1-3.4-1.2-4.7c-1.1-1.3-2.6-2-4.6-2c-1.2,0-2.3,0.2-3.3,0.6c-1,0.4-1.8,0.9-2.6,1.5
			c-0.7,0.6-1.3,1.3-1.8,2.1c-0.5,0.8-0.8,1.6-1,2.5H-1257z"/>
		<g>
			<path class="st0" d="M-1516,91.4c-0.3-0.4-0.7-0.7-1-0.8c-0.3-0.1-0.7-0.2-1.1-0.2c-0.6,0-1.1,0.1-1.5,0.3
				c-0.5,0.2-0.9,0.5-1.3,0.8c-0.4,0.3-0.7,0.7-0.9,1.2c-0.2,0.5-0.4,1-0.5,1.5c-0.1,0.6-0.1,1.1,0,1.6c0.1,0.5,0.3,0.9,0.6,1.2
				c0.3,0.4,0.6,0.6,1,0.8c0.4,0.2,0.9,0.3,1.5,0.3c0.4,0,0.9-0.1,1.3-0.3c0.4-0.2,0.9-0.5,1.3-1l1.4,1.1c-0.6,0.7-1.2,1.1-2,1.4
				c-0.7,0.3-1.5,0.5-2.3,0.5c-0.8,0-1.6-0.1-2.2-0.4c-0.7-0.3-1.2-0.6-1.6-1.1c-0.4-0.5-0.7-1.1-0.9-1.7c-0.2-0.7-0.2-1.4-0.1-2.3
				c0.1-0.8,0.4-1.6,0.7-2.3c0.4-0.7,0.8-1.3,1.4-1.8s1.2-0.9,1.9-1.1c0.7-0.3,1.5-0.4,2.3-0.4c0.7,0,1.4,0.1,1.9,0.4
				c0.6,0.3,1.1,0.7,1.5,1.3L-1516,91.4z"/>
			<path class="st0" d="M-1503.5,94.3c0.1-0.8,0.4-1.6,0.7-2.3c0.4-0.7,0.8-1.3,1.4-1.8s1.2-0.9,1.9-1.1c0.7-0.3,1.5-0.4,2.3-0.4
				c0.8,0,1.6,0.1,2.2,0.4c0.7,0.3,1.2,0.6,1.6,1.1c0.4,0.5,0.7,1.1,0.9,1.8c0.2,0.7,0.2,1.5,0.1,2.3c-0.1,0.8-0.4,1.6-0.7,2.3
				c-0.4,0.7-0.8,1.3-1.4,1.8c-0.6,0.5-1.2,0.9-1.9,1.1s-1.5,0.4-2.3,0.4c-0.8,0-1.6-0.1-2.2-0.4c-0.7-0.3-1.2-0.6-1.6-1.1
				c-0.4-0.5-0.7-1.1-0.9-1.7C-1503.6,95.9-1503.6,95.1-1503.5,94.3z M-1501.5,94.2c-0.1,0.6-0.1,1.1,0,1.6c0.1,0.5,0.3,0.9,0.6,1.2
				c0.3,0.4,0.6,0.6,1,0.8c0.4,0.2,0.9,0.3,1.5,0.3c0.6,0,1.1-0.1,1.5-0.3c0.5-0.2,0.9-0.5,1.3-0.8c0.4-0.4,0.7-0.8,0.9-1.2
				s0.4-1,0.5-1.6c0.1-0.5,0.1-1-0.1-1.5c-0.1-0.5-0.3-0.9-0.6-1.2c-0.3-0.3-0.6-0.6-1-0.8c-0.4-0.2-0.9-0.3-1.5-0.3
				s-1.1,0.1-1.5,0.3c-0.5,0.2-0.9,0.5-1.3,0.8c-0.4,0.3-0.7,0.7-0.9,1.2C-1501.3,93.1-1501.4,93.6-1501.5,94.2z"/>
			<path class="st0" d="M-1479.2,88.9h2.5l4,7.9h0l1.1-7.9h1.9l-1.5,10.6h-2.4l-4.1-8.1h0l-1.1,8.1h-1.9L-1479.2,88.9z"/>
			<path class="st0" d="M-1454.8,90.6h-3.3l0.2-1.7h8.4l-0.2,1.7h-3.3l-1.2,8.9h-1.9L-1454.8,90.6z"/>
			<path class="st0" d="M-1435.6,88.9h1.6l3.1,10.6h-2.2l-0.7-2.4h-4.6l-1.3,2.4h-2.1L-1435.6,88.9z M-1434.1,95.5l-1-4.3l-2.3,4.3
				H-1434.1z"/>
			<path class="st0" d="M-1410.7,91.4c-0.3-0.4-0.7-0.7-1-0.8c-0.3-0.1-0.7-0.2-1.1-0.2c-0.6,0-1.1,0.1-1.5,0.3
				c-0.5,0.2-0.9,0.5-1.3,0.8c-0.4,0.3-0.7,0.7-0.9,1.2c-0.2,0.5-0.4,1-0.5,1.5c-0.1,0.6-0.1,1.1,0,1.6c0.1,0.5,0.3,0.9,0.6,1.2
				c0.3,0.4,0.6,0.6,1,0.8c0.4,0.2,0.9,0.3,1.5,0.3c0.4,0,0.9-0.1,1.3-0.3c0.4-0.2,0.9-0.5,1.3-1l1.4,1.1c-0.6,0.7-1.2,1.1-2,1.4
				c-0.7,0.3-1.5,0.5-2.3,0.5c-0.8,0-1.6-0.1-2.2-0.4c-0.7-0.3-1.2-0.6-1.6-1.1c-0.4-0.5-0.7-1.1-0.9-1.7c-0.2-0.7-0.2-1.4-0.1-2.3
				c0.1-0.8,0.4-1.6,0.7-2.3c0.4-0.7,0.8-1.3,1.4-1.8s1.2-0.9,1.9-1.1c0.7-0.3,1.5-0.4,2.3-0.4c0.7,0,1.4,0.1,1.9,0.4
				c0.6,0.3,1.1,0.7,1.5,1.3L-1410.7,91.4z"/>
			<path class="st0" d="M-1395,90.6h-3.3l0.2-1.7h8.4l-0.2,1.7h-3.3l-1.2,8.9h-1.9L-1395,90.6z"/>
			<path class="st0" d="M-1355.9,91.4c-0.3-0.4-0.7-0.7-1-0.8c-0.3-0.1-0.7-0.2-1.1-0.2c-0.6,0-1.1,0.1-1.5,0.3
				c-0.5,0.2-0.9,0.5-1.3,0.8c-0.4,0.3-0.7,0.7-0.9,1.2c-0.2,0.5-0.4,1-0.5,1.5c-0.1,0.6-0.1,1.1,0,1.6c0.1,0.5,0.3,0.9,0.6,1.2
				c0.3,0.4,0.6,0.6,1,0.8c0.4,0.2,0.9,0.3,1.5,0.3c0.4,0,0.9-0.1,1.3-0.3c0.4-0.2,0.9-0.5,1.3-1l1.4,1.1c-0.6,0.7-1.2,1.1-2,1.4
				c-0.7,0.3-1.5,0.5-2.3,0.5c-0.8,0-1.6-0.1-2.2-0.4c-0.7-0.3-1.2-0.6-1.6-1.1c-0.4-0.5-0.7-1.1-0.9-1.7c-0.2-0.7-0.2-1.4-0.1-2.3
				c0.1-0.8,0.4-1.6,0.7-2.3c0.4-0.7,0.8-1.3,1.4-1.8s1.2-0.9,1.9-1.1c0.7-0.3,1.5-0.4,2.3-0.4c0.7,0,1.4,0.1,1.9,0.4
				c0.6,0.3,1.1,0.7,1.5,1.3L-1355.9,91.4z"/>
			<path class="st0" d="M-1342.1,88.9h7l-0.2,1.7h-5.1l-0.4,2.6h4.9l-0.2,1.7h-4.9l-0.4,2.9h5.4l-0.2,1.7h-7.3L-1342.1,88.9z"/>
			<path class="st0" d="M-1322.4,88.9h2.5l4,7.9h0l1.1-7.9h1.9l-1.5,10.6h-2.4l-4.1-8.1h0l-1.1,8.1h-1.9L-1322.4,88.9z"/>
			<path class="st0" d="M-1298,90.6h-3.3l0.2-1.7h8.4l-0.2,1.7h-3.3l-1.2,8.9h-1.9L-1298,90.6z"/>
			<path class="st0" d="M-1280.9,88.9h7l-0.2,1.7h-5.1l-0.4,2.6h4.9l-0.2,1.7h-4.9l-0.4,2.9h5.4l-0.2,1.7h-7.3L-1280.9,88.9z"/>
			<path class="st0" d="M-1261.2,88.9h3.7c0.5,0,1,0,1.5,0.1c0.5,0.1,0.9,0.3,1.2,0.5c0.3,0.2,0.6,0.5,0.8,0.9s0.2,0.9,0.1,1.5
				c-0.1,0.4-0.2,0.7-0.3,1.1c-0.2,0.3-0.4,0.6-0.6,0.9c-0.2,0.2-0.5,0.5-0.9,0.6s-0.7,0.3-1.1,0.3l2.2,4.7h-2.3l-1.8-4.5h-1.4
				l-0.6,4.5h-1.9L-1261.2,88.9z M-1258.5,93.4c0.3,0,0.5,0,0.8,0c0.3,0,0.5-0.1,0.8-0.2c0.2-0.1,0.4-0.2,0.6-0.4s0.3-0.5,0.3-0.8
				c0-0.3,0-0.6-0.1-0.8s-0.3-0.3-0.5-0.4c-0.2-0.1-0.4-0.2-0.7-0.2c-0.2,0-0.5,0-0.7,0h-1.6l-0.4,2.9H-1258.5z"/>
		</g>
		<g>
			<path class="st0" d="M-1338.8,55.4l-3.4,24h10.9l2.8-19.9C-1331.5,57.7-1335,56.3-1338.8,55.4z"/>
			<path class="st0" d="M-1327.4,52.4l1.2-8.5h-11l-0.7,4.8C-1334.1,49.5-1330.6,50.8-1327.4,52.4z"/>
		</g>
		<g>
			<path class="st0" d="M-1348.9,54.2c-2.5,0-4.9,0.2-7.3,0.6l-3.4,24.5h10.9l3.5-25C-1346.5,54.3-1347.7,54.2-1348.9,54.2z"/>
			<path class="st0" d="M-1348.9,47.6c1.6,0,3.1,0.1,4.6,0.2l3.3-23.6h-11l-3.3,23.8C-1353.2,47.7-1351.1,47.6-1348.9,47.6z"/>
		</g>
		<g>
			<path class="st0" d="M-1362,49.3l0.7-5.4h-11l-1.5,10.4C-1370.3,52.1-1366.3,50.4-1362,49.3z"/>
			<path class="st0" d="M-1375.1,64.1l-2.1,15.3h10.9l3.2-22.8C-1368,58.3-1372.2,60.9-1375.1,64.1z"/>
		</g>
	</g>
</g>
<g>
	<g>
		<path class="st0" d="M-1126-56.6c-0.3-0.4-0.7-0.7-1-0.8c-0.3-0.1-0.7-0.2-1.1-0.2c-0.6,0-1.1,0.1-1.5,0.3
			c-0.5,0.2-0.9,0.5-1.3,0.8c-0.4,0.3-0.7,0.7-0.9,1.2c-0.2,0.5-0.4,1-0.5,1.5c-0.1,0.6-0.1,1.1,0,1.6c0.1,0.5,0.3,0.9,0.6,1.2
			c0.3,0.4,0.6,0.6,1,0.8c0.4,0.2,0.9,0.3,1.5,0.3c0.4,0,0.9-0.1,1.3-0.3c0.4-0.2,0.9-0.5,1.3-1l1.4,1.1c-0.6,0.7-1.2,1.1-2,1.4
			c-0.7,0.3-1.5,0.5-2.3,0.5c-0.8,0-1.6-0.1-2.2-0.4c-0.7-0.3-1.2-0.6-1.6-1.1c-0.4-0.5-0.7-1.1-0.9-1.7c-0.2-0.7-0.2-1.4-0.1-2.3
			c0.1-0.8,0.4-1.6,0.7-2.3c0.4-0.7,0.8-1.3,1.4-1.8s1.2-0.9,1.9-1.1c0.7-0.3,1.5-0.4,2.3-0.4c0.7,0,1.4,0.1,1.9,0.4
			c0.6,0.3,1.1,0.7,1.5,1.3L-1126-56.6z"/>
		<path class="st0" d="M-1113.5-53.7c0.1-0.8,0.4-1.6,0.7-2.3c0.4-0.7,0.8-1.3,1.4-1.8s1.2-0.9,1.9-1.1c0.7-0.3,1.5-0.4,2.3-0.4
			c0.8,0,1.6,0.1,2.2,0.4c0.7,0.3,1.2,0.6,1.6,1.1c0.4,0.5,0.7,1.1,0.9,1.8c0.2,0.7,0.2,1.5,0.1,2.3c-0.1,0.8-0.4,1.6-0.7,2.3
			c-0.4,0.7-0.8,1.3-1.4,1.8c-0.6,0.5-1.2,0.9-1.9,1.1s-1.5,0.4-2.3,0.4c-0.8,0-1.6-0.1-2.2-0.4c-0.7-0.3-1.2-0.6-1.6-1.1
			c-0.4-0.5-0.7-1.1-0.9-1.7C-1113.6-52.1-1113.6-52.9-1113.5-53.7z M-1111.5-53.8c-0.1,0.6-0.1,1.1,0,1.6c0.1,0.5,0.3,0.9,0.6,1.2
			c0.3,0.4,0.6,0.6,1,0.8c0.4,0.2,0.9,0.3,1.5,0.3c0.6,0,1.1-0.1,1.5-0.3c0.5-0.2,0.9-0.5,1.3-0.8c0.4-0.4,0.7-0.8,0.9-1.2
			s0.4-1,0.5-1.6c0.1-0.5,0.1-1-0.1-1.5c-0.1-0.5-0.3-0.9-0.6-1.2c-0.3-0.3-0.6-0.6-1-0.8c-0.4-0.2-0.9-0.3-1.5-0.3
			s-1.1,0.1-1.5,0.3c-0.5,0.2-0.9,0.5-1.3,0.8c-0.4,0.3-0.7,0.7-0.9,1.2C-1111.3-54.9-1111.4-54.4-1111.5-53.8z"/>
		<path class="st0" d="M-1089.2-59.1h2.5l4,7.9h0l1.1-7.9h1.9l-1.5,10.6h-2.4l-4.1-8.1h0l-1.1,8.1h-1.9L-1089.2-59.1z"/>
		<path class="st0" d="M-1064.8-57.4h-3.3l0.2-1.7h8.4l-0.2,1.7h-3.3l-1.2,8.9h-1.9L-1064.8-57.4z"/>
		<path class="st0" d="M-1045.6-59.1h1.6l3.1,10.6h-2.2l-0.7-2.4h-4.6l-1.3,2.4h-2.1L-1045.6-59.1z M-1044.1-52.5l-1-4.3l-2.3,4.3
			H-1044.1z"/>
		<path class="st0" d="M-1020.7-56.6c-0.3-0.4-0.7-0.7-1-0.8c-0.3-0.1-0.7-0.2-1.1-0.2c-0.6,0-1.1,0.1-1.5,0.3
			c-0.5,0.2-0.9,0.5-1.3,0.8c-0.4,0.3-0.7,0.7-0.9,1.2c-0.2,0.5-0.4,1-0.5,1.5c-0.1,0.6-0.1,1.1,0,1.6c0.1,0.5,0.3,0.9,0.6,1.2
			c0.3,0.4,0.6,0.6,1,0.8c0.4,0.2,0.9,0.3,1.5,0.3c0.4,0,0.9-0.1,1.3-0.3c0.4-0.2,0.9-0.5,1.3-1l1.4,1.1c-0.6,0.7-1.2,1.1-2,1.4
			c-0.7,0.3-1.5,0.5-2.3,0.5c-0.8,0-1.6-0.1-2.2-0.4c-0.7-0.3-1.2-0.6-1.6-1.1c-0.4-0.5-0.7-1.1-0.9-1.7c-0.2-0.7-0.2-1.4-0.1-2.3
			c0.1-0.8,0.4-1.6,0.7-2.3c0.4-0.7,0.8-1.3,1.4-1.8s1.2-0.9,1.9-1.1c0.7-0.3,1.5-0.4,2.3-0.4c0.7,0,1.4,0.1,1.9,0.4
			c0.6,0.3,1.1,0.7,1.5,1.3L-1020.7-56.6z"/>
		<path class="st0" d="M-1005-57.4h-3.3l0.2-1.7h8.4l-0.2,1.7h-3.3l-1.2,8.9h-1.9L-1005-57.4z"/>
		<path class="st0" d="M-965.9-56.6c-0.3-0.4-0.7-0.7-1-0.8c-0.3-0.1-0.7-0.2-1.1-0.2c-0.6,0-1.1,0.1-1.5,0.3
			c-0.5,0.2-0.9,0.5-1.3,0.8c-0.4,0.3-0.7,0.7-0.9,1.2c-0.2,0.5-0.4,1-0.5,1.5c-0.1,0.6-0.1,1.1,0,1.6c0.1,0.5,0.3,0.9,0.6,1.2
			c0.3,0.4,0.6,0.6,1,0.8c0.4,0.2,0.9,0.3,1.5,0.3c0.4,0,0.9-0.1,1.3-0.3c0.4-0.2,0.9-0.5,1.3-1l1.4,1.1c-0.6,0.7-1.2,1.1-2,1.4
			c-0.7,0.3-1.5,0.5-2.3,0.5c-0.8,0-1.6-0.1-2.2-0.4c-0.7-0.3-1.2-0.6-1.6-1.1c-0.4-0.5-0.7-1.1-0.9-1.7c-0.2-0.7-0.2-1.4-0.1-2.3
			c0.1-0.8,0.4-1.6,0.7-2.3c0.4-0.7,0.8-1.3,1.4-1.8s1.2-0.9,1.9-1.1c0.7-0.3,1.5-0.4,2.3-0.4c0.7,0,1.4,0.1,1.9,0.4
			c0.6,0.3,1.1,0.7,1.5,1.3L-965.9-56.6z"/>
		<path class="st0" d="M-952.1-59.1h7l-0.2,1.7h-5.1l-0.4,2.6h4.9l-0.2,1.7h-4.9l-0.4,2.9h5.4l-0.2,1.7h-7.3L-952.1-59.1z"/>
		<path class="st0" d="M-932.4-59.1h2.5l4,7.9h0l1.1-7.9h1.9l-1.5,10.6h-2.4l-4.1-8.1h0l-1.1,8.1h-1.9L-932.4-59.1z"/>
		<path class="st0" d="M-908.1-57.4h-3.3l0.2-1.7h8.4l-0.2,1.7h-3.3l-1.2,8.9h-1.9L-908.1-57.4z"/>
		<path class="st0" d="M-890.9-59.1h7l-0.2,1.7h-5.1l-0.4,2.6h4.9L-885-53h-4.9l-0.4,2.9h5.4l-0.2,1.7h-7.3L-890.9-59.1z"/>
		<path class="st0" d="M-871.2-59.1h3.7c0.5,0,1,0,1.5,0.1c0.5,0.1,0.9,0.3,1.2,0.5c0.3,0.2,0.6,0.5,0.8,0.9s0.2,0.9,0.1,1.5
			c-0.1,0.4-0.2,0.7-0.3,1.1c-0.2,0.3-0.4,0.6-0.6,0.9c-0.2,0.2-0.5,0.5-0.9,0.6s-0.7,0.3-1.1,0.3l2.2,4.7h-2.3l-1.8-4.5h-1.4
			l-0.6,4.5h-1.9L-871.2-59.1z M-868.5-54.6c0.3,0,0.5,0,0.8,0c0.3,0,0.5-0.1,0.8-0.2c0.2-0.1,0.4-0.2,0.6-0.4s0.3-0.5,0.3-0.8
			c0-0.3,0-0.6-0.1-0.8s-0.3-0.3-0.5-0.4c-0.2-0.1-0.4-0.2-0.7-0.2c-0.2,0-0.5,0-0.7,0h-1.6l-0.4,2.9H-868.5z"/>
	</g>
	<g>
		<path class="st0" d="M-929.8-104.1h10.5l-0.7,4.8h0.1c0.4-0.7,1-1.4,1.8-2c0.7-0.7,1.6-1.3,2.5-1.8c0.9-0.5,2-1,3.1-1.3
			c1.2-0.3,2.4-0.5,3.7-0.5c2.8,0,5,0.4,6.6,1.3c1.6,0.9,2.8,2,3.5,3.5c0.7,1.5,1.1,3.3,1.2,5.3c0,2-0.1,4.3-0.4,6.6l-2.7,19.6h-11
			l2.4-17.4c0.1-1,0.3-2.1,0.4-3.2c0.1-1.1,0-2.1-0.2-3c-0.2-0.9-0.7-1.7-1.4-2.3s-1.7-0.9-3.1-0.9c-1.4,0-2.6,0.3-3.5,0.8
			c-0.9,0.5-1.7,1.2-2.3,2c-0.6,0.9-1,1.8-1.3,2.9c-0.3,1.1-0.5,2.2-0.7,3.4l-2.5,17.7h-10.9L-929.8-104.1z"/>
		<path class="st0" d="M-860-74.8c-2,2.2-4.5,4-7.3,5.2c-2.8,1.2-5.7,1.8-8.6,1.8c-2.7,0-5.2-0.4-7.5-1.3c-2.3-0.9-4.2-2.1-5.7-3.8
			c-1.5-1.6-2.7-3.6-3.4-5.9c-0.7-2.3-0.9-4.8-0.5-7.7c0.4-2.8,1.3-5.4,2.6-7.7c1.3-2.3,3-4.2,5-5.9c2-1.6,4.3-2.9,6.8-3.8
			c2.5-0.9,5.2-1.3,7.9-1.3c2.5,0,4.8,0.4,6.7,1.3c1.9,0.9,3.5,2.1,4.7,3.8c1.2,1.6,2.1,3.6,2.5,5.9c0.5,2.3,0.5,4.8,0.1,7.7
			l-0.5,3.4h-25.4c0.1,2.1,0.9,3.8,2.2,5c1.3,1.2,3,1.9,5.1,1.9c1.8,0,3.4-0.4,4.7-1.2c1.3-0.8,2.6-1.8,3.7-3.1L-860-74.8z
			 M-867.1-90.4c0.3-1.8-0.1-3.4-1.2-4.7c-1.1-1.3-2.6-2-4.6-2c-1.2,0-2.3,0.2-3.3,0.6c-1,0.4-1.8,0.9-2.6,1.5
			c-0.7,0.6-1.3,1.3-1.8,2.1c-0.5,0.8-0.8,1.6-1,2.5H-867.1z"/>
		<g>
			<path class="st0" d="M-948.8-92.6l-3.4,24h10.9l2.8-19.9C-941.5-90.3-945-91.7-948.8-92.6z"/>
			<path class="st0" d="M-937.5-95.6l1.2-8.5h-11l-0.7,4.8C-944.2-98.4-940.6-97.2-937.5-95.6z"/>
		</g>
		<g>
			<path class="st0" d="M-959-93.7c-2.5,0-4.9,0.2-7.3,0.6l-3.4,24.5h10.9l3.5-25C-956.5-93.7-957.7-93.7-959-93.7z"/>
			<path class="st0" d="M-959-100.4c1.6,0,3.1,0.1,4.6,0.2l3.3-23.6h-11l-3.3,23.8C-963.2-100.3-961.1-100.4-959-100.4z"/>
		</g>
	</g>
	<g>
		<path class="st0" d="M-1130.7-104.1h10.5l-0.7,4.8h0.1c0.4-0.7,1-1.4,1.8-2c0.7-0.7,1.6-1.3,2.5-1.8c0.9-0.5,2-1,3.1-1.3
			c1.2-0.3,2.4-0.5,3.7-0.5c2.5,0,4.6,0.5,6.4,1.5c1.8,1,3,2.6,3.6,4.8c1.6-2.3,3.4-3.9,5.3-4.9c1.9-1,4.2-1.5,6.8-1.5
			c2.4,0,4.3,0.4,5.8,1.2c1.5,0.8,2.7,1.9,3.4,3.3c0.8,1.4,1.2,3,1.4,4.9c0.1,1.9,0.1,3.9-0.2,6l-2.9,21h-11l2.8-20.7
			c0.2-1.7,0.1-3.1-0.4-4.3c-0.5-1.2-1.7-1.8-3.5-1.8c-1.3,0-2.3,0.2-3.2,0.6c-0.9,0.4-1.7,1-2.3,1.7c-0.6,0.7-1.1,1.6-1.5,2.6
			c-0.3,1-0.6,2-0.7,3.1l-2.6,18.8h-11l2.6-18.8c0.1-0.6,0.2-1.4,0.3-2.3c0.1-0.9,0-1.8-0.1-2.6c-0.2-0.8-0.5-1.5-1.1-2.1
			c-0.6-0.6-1.5-0.9-2.8-0.9c-1.4,0-2.6,0.3-3.5,0.8c-0.9,0.5-1.7,1.2-2.3,2c-0.6,0.9-1,1.8-1.3,2.9c-0.3,1.1-0.5,2.2-0.7,3.4
			l-2.5,17.7h-10.9L-1130.7-104.1z"/>
		<path class="st0" d="M-1039.4-68.6h-10.5l0.7-4.8h-0.1c-0.5,0.7-1.1,1.4-1.8,2c-0.7,0.7-1.5,1.3-2.5,1.8c-0.9,0.5-2,1-3.2,1.3
			c-1.2,0.3-2.4,0.5-3.7,0.5c-2.8,0-5-0.4-6.6-1.3c-1.6-0.9-2.8-2-3.5-3.5c-0.7-1.5-1.1-3.3-1.2-5.3c0-2,0.1-4.3,0.4-6.6l2.8-19.6
			h11l-2.5,17.4c-0.1,1-0.3,2.1-0.4,3.2c-0.1,1.1,0,2.1,0.2,3c0.2,0.9,0.7,1.7,1.4,2.3c0.7,0.6,1.7,0.9,3.1,0.9
			c1.4,0,2.6-0.3,3.5-0.8c0.9-0.5,1.7-1.2,2.3-2c0.6-0.9,1-1.8,1.4-2.9c0.3-1.1,0.5-2.2,0.7-3.4l2.5-17.7h11L-1039.4-68.6z"/>
		<path class="st0" d="M-1025.3-123.8h11l-7.7,55.2h-10.9L-1025.3-123.8z"/>
		<path class="st0" d="M-987.7-95.3h-9.6l-1.7,11.8c-0.1,1-0.2,1.9-0.2,2.7c0,0.8,0.1,1.5,0.4,2.1c0.3,0.6,0.7,1,1.4,1.4
			c0.7,0.3,1.6,0.5,2.7,0.5c0.6,0,1.4-0.1,2.3-0.2c0.9-0.1,1.7-0.4,2.2-0.8l-1.2,9.1c-1.3,0.4-2.6,0.7-3.9,0.9
			c-1.3,0.1-2.6,0.2-3.9,0.2c-1.9,0-3.5-0.2-5-0.6c-1.5-0.4-2.8-1-3.8-1.9c-1-0.9-1.8-2-2.3-3.3c-0.5-1.4-0.6-3-0.3-5l2.4-16.9h-7
			l1.2-8.8h7l1.5-10.5h10.9l-1.5,10.5h9.6L-987.7-95.3z"/>
		<g>
			<path class="st0" d="M-972.1-98.7l0.7-5.4h-11l-1.5,10.4C-980.3-95.9-976.4-97.6-972.1-98.7z"/>
			<path class="st0" d="M-985.1-83.9l-2.1,15.3h10.9l3.2-22.8C-978-89.7-982.2-87.1-985.1-83.9z"/>
		</g>
	</g>
</g>
<g>
	<g>
		<path class="st1" d="M-736-56.6c-0.3-0.4-0.7-0.7-1-0.8c-0.3-0.1-0.7-0.2-1.1-0.2c-0.6,0-1.1,0.1-1.5,0.3
			c-0.5,0.2-0.9,0.5-1.3,0.8c-0.4,0.3-0.7,0.7-0.9,1.2c-0.2,0.5-0.4,1-0.5,1.5c-0.1,0.6-0.1,1.1,0,1.6c0.1,0.5,0.3,0.9,0.6,1.2
			c0.3,0.4,0.6,0.6,1,0.8c0.4,0.2,0.9,0.3,1.5,0.3c0.4,0,0.9-0.1,1.3-0.3c0.4-0.2,0.9-0.5,1.3-1l1.4,1.1c-0.6,0.7-1.2,1.1-2,1.4
			c-0.7,0.3-1.5,0.5-2.3,0.5c-0.8,0-1.6-0.1-2.2-0.4c-0.7-0.3-1.2-0.6-1.6-1.1c-0.4-0.5-0.7-1.1-0.9-1.7c-0.2-0.7-0.2-1.4-0.1-2.3
			c0.1-0.8,0.4-1.6,0.7-2.3c0.4-0.7,0.8-1.3,1.4-1.8s1.2-0.9,1.9-1.1c0.7-0.3,1.5-0.4,2.3-0.4c0.7,0,1.4,0.1,1.9,0.4
			c0.6,0.3,1.1,0.7,1.5,1.3L-736-56.6z"/>
		<path class="st1" d="M-723.5-53.7c0.1-0.8,0.4-1.6,0.7-2.3c0.4-0.7,0.8-1.3,1.4-1.8s1.2-0.9,1.9-1.1c0.7-0.3,1.5-0.4,2.3-0.4
			c0.8,0,1.6,0.1,2.2,0.4c0.7,0.3,1.2,0.6,1.6,1.1c0.4,0.5,0.7,1.1,0.9,1.8c0.2,0.7,0.2,1.5,0.1,2.3c-0.1,0.8-0.4,1.6-0.7,2.3
			c-0.4,0.7-0.8,1.3-1.4,1.8c-0.6,0.5-1.2,0.9-1.9,1.1s-1.5,0.4-2.3,0.4c-0.8,0-1.6-0.1-2.2-0.4c-0.7-0.3-1.2-0.6-1.6-1.1
			c-0.4-0.5-0.7-1.1-0.9-1.7C-723.6-52.1-723.6-52.9-723.5-53.7z M-721.5-53.8c-0.1,0.6-0.1,1.1,0,1.6c0.1,0.5,0.3,0.9,0.6,1.2
			c0.3,0.4,0.6,0.6,1,0.8c0.4,0.2,0.9,0.3,1.5,0.3c0.6,0,1.1-0.1,1.5-0.3c0.5-0.2,0.9-0.5,1.3-0.8c0.4-0.4,0.7-0.8,0.9-1.2
			s0.4-1,0.5-1.6c0.1-0.5,0.1-1-0.1-1.5c-0.1-0.5-0.3-0.9-0.6-1.2c-0.3-0.3-0.6-0.6-1-0.8c-0.4-0.2-0.9-0.3-1.5-0.3
			s-1.1,0.1-1.5,0.3c-0.5,0.2-0.9,0.5-1.3,0.8c-0.4,0.3-0.7,0.7-0.9,1.2C-721.3-54.9-721.5-54.4-721.5-53.8z"/>
		<path class="st1" d="M-699.2-59.1h2.5l4,7.9h0l1.1-7.9h1.9l-1.5,10.6h-2.4l-4.1-8.1h0l-1.1,8.1h-1.9L-699.2-59.1z"/>
		<path class="st1" d="M-674.8-57.4h-3.3l0.2-1.7h8.4l-0.2,1.7h-3.3l-1.2,8.9h-1.9L-674.8-57.4z"/>
		<path class="st1" d="M-655.6-59.1h1.6l3.1,10.6h-2.2l-0.7-2.4h-4.6l-1.3,2.4h-2.1L-655.6-59.1z M-654.1-52.5l-1-4.3l-2.3,4.3
			H-654.1z"/>
		<path class="st1" d="M-630.8-56.6c-0.3-0.4-0.7-0.7-1-0.8c-0.3-0.1-0.7-0.2-1.1-0.2c-0.6,0-1.1,0.1-1.5,0.3
			c-0.5,0.2-0.9,0.5-1.3,0.8c-0.4,0.3-0.7,0.7-0.9,1.2c-0.2,0.5-0.4,1-0.5,1.5c-0.1,0.6-0.1,1.1,0,1.6c0.1,0.5,0.3,0.9,0.6,1.2
			c0.3,0.4,0.6,0.6,1,0.8c0.4,0.2,0.9,0.3,1.5,0.3c0.4,0,0.9-0.1,1.3-0.3c0.4-0.2,0.9-0.5,1.3-1l1.4,1.1c-0.6,0.7-1.2,1.1-2,1.4
			c-0.7,0.3-1.5,0.5-2.3,0.5c-0.8,0-1.6-0.1-2.2-0.4c-0.7-0.3-1.2-0.6-1.6-1.1c-0.4-0.5-0.7-1.1-0.9-1.7c-0.2-0.7-0.2-1.4-0.1-2.3
			c0.1-0.8,0.4-1.6,0.7-2.3c0.4-0.7,0.8-1.3,1.4-1.8s1.2-0.9,1.9-1.1c0.7-0.3,1.5-0.4,2.3-0.4c0.7,0,1.4,0.1,1.9,0.4
			c0.6,0.3,1.1,0.7,1.5,1.3L-630.8-56.6z"/>
		<path class="st1" d="M-615-57.4h-3.3l0.2-1.7h8.4l-0.2,1.7h-3.3l-1.2,8.9h-1.9L-615-57.4z"/>
		<path class="st1" d="M-575.9-56.6c-0.3-0.4-0.7-0.7-1-0.8c-0.3-0.1-0.7-0.2-1.1-0.2c-0.6,0-1.1,0.1-1.5,0.3
			c-0.5,0.2-0.9,0.5-1.3,0.8c-0.4,0.3-0.7,0.7-0.9,1.2c-0.2,0.5-0.4,1-0.5,1.5c-0.1,0.6-0.1,1.1,0,1.6c0.1,0.5,0.3,0.9,0.6,1.2
			c0.3,0.4,0.6,0.6,1,0.8c0.4,0.2,0.9,0.3,1.5,0.3c0.4,0,0.9-0.1,1.3-0.3c0.4-0.2,0.9-0.5,1.3-1l1.4,1.1c-0.6,0.7-1.2,1.1-2,1.4
			c-0.7,0.3-1.5,0.5-2.3,0.5c-0.8,0-1.6-0.1-2.2-0.4c-0.7-0.3-1.2-0.6-1.6-1.1c-0.4-0.5-0.7-1.1-0.9-1.7c-0.2-0.7-0.2-1.4-0.1-2.3
			c0.1-0.8,0.4-1.6,0.7-2.3c0.4-0.7,0.8-1.3,1.4-1.8s1.2-0.9,1.9-1.1c0.7-0.3,1.5-0.4,2.3-0.4c0.7,0,1.4,0.1,1.9,0.4
			c0.6,0.3,1.1,0.7,1.5,1.3L-575.9-56.6z"/>
		<path class="st1" d="M-562.1-59.1h7l-0.2,1.7h-5.1l-0.4,2.6h4.9l-0.2,1.7h-4.9l-0.4,2.9h5.4l-0.2,1.7h-7.3L-562.1-59.1z"/>
		<path class="st1" d="M-542.4-59.1h2.5l4,7.9h0l1.1-7.9h1.9l-1.5,10.6h-2.4l-4.1-8.1h0l-1.1,8.1h-1.9L-542.4-59.1z"/>
		<path class="st1" d="M-518.1-57.4h-3.3l0.2-1.7h8.4l-0.2,1.7h-3.3l-1.2,8.9h-1.9L-518.1-57.4z"/>
		<path class="st1" d="M-500.9-59.1h7l-0.2,1.7h-5.1l-0.4,2.6h4.9L-495-53h-4.9l-0.4,2.9h5.4l-0.2,1.7h-7.3L-500.9-59.1z"/>
		<path class="st1" d="M-481.2-59.1h3.7c0.5,0,1,0,1.5,0.1c0.5,0.1,0.9,0.3,1.2,0.5c0.3,0.2,0.6,0.5,0.8,0.9s0.2,0.9,0.1,1.5
			c-0.1,0.4-0.2,0.7-0.3,1.1c-0.2,0.3-0.4,0.6-0.6,0.9c-0.2,0.2-0.5,0.5-0.9,0.6s-0.7,0.3-1.1,0.3l2.2,4.7h-2.3l-1.8-4.5h-1.4
			l-0.6,4.5h-1.9L-481.2-59.1z M-478.5-54.6c0.3,0,0.5,0,0.8,0c0.3,0,0.5-0.1,0.8-0.2c0.2-0.1,0.4-0.2,0.6-0.4s0.3-0.5,0.3-0.8
			c0-0.3,0-0.6-0.1-0.8s-0.3-0.3-0.5-0.4c-0.2-0.1-0.4-0.2-0.7-0.2c-0.2,0-0.5,0-0.7,0h-1.6l-0.4,2.9H-478.5z"/>
	</g>
	<g>
		<path class="st1" d="M-539.9-104.1h10.5l-0.7,4.8h0.1c0.4-0.7,1-1.4,1.8-2c0.7-0.7,1.6-1.3,2.5-1.8c0.9-0.5,2-1,3.1-1.3
			c1.2-0.3,2.4-0.5,3.7-0.5c2.8,0,5,0.4,6.6,1.3c1.6,0.9,2.8,2,3.5,3.5c0.7,1.5,1.1,3.3,1.2,5.3c0,2-0.1,4.3-0.4,6.6l-2.7,19.6h-11
			l2.4-17.4c0.1-1,0.3-2.1,0.4-3.2c0.1-1.1,0-2.1-0.2-3c-0.2-0.9-0.7-1.7-1.4-2.3s-1.7-0.9-3.1-0.9c-1.4,0-2.6,0.3-3.5,0.8
			c-0.9,0.5-1.7,1.2-2.3,2c-0.6,0.9-1,1.8-1.3,2.9c-0.3,1.1-0.5,2.2-0.7,3.4l-2.5,17.7h-10.9L-539.9-104.1z"/>
		<path class="st1" d="M-470-74.8c-2,2.2-4.5,4-7.3,5.2c-2.8,1.2-5.7,1.8-8.6,1.8c-2.7,0-5.2-0.4-7.5-1.3c-2.3-0.9-4.2-2.1-5.7-3.8
			c-1.5-1.6-2.7-3.6-3.4-5.9c-0.7-2.3-0.9-4.8-0.5-7.7c0.4-2.8,1.3-5.4,2.6-7.7c1.3-2.3,3-4.2,5-5.9c2-1.6,4.3-2.9,6.8-3.8
			c2.5-0.9,5.2-1.3,7.9-1.3c2.5,0,4.8,0.4,6.7,1.3c1.9,0.9,3.5,2.1,4.7,3.8c1.2,1.6,2.1,3.6,2.5,5.9c0.5,2.3,0.5,4.8,0.1,7.7
			l-0.5,3.4h-25.4c0.1,2.1,0.9,3.8,2.2,5c1.3,1.2,3,1.9,5.1,1.9c1.8,0,3.4-0.4,4.7-1.2c1.3-0.8,2.6-1.8,3.7-3.1L-470-74.8z
			 M-477.1-90.4c0.3-1.8-0.1-3.4-1.2-4.7c-1.1-1.3-2.6-2-4.6-2c-1.2,0-2.3,0.2-3.3,0.6c-1,0.4-1.8,0.9-2.6,1.5
			c-0.7,0.6-1.3,1.3-1.8,2.1c-0.5,0.8-0.8,1.6-1,2.5H-477.1z"/>
		<g>
			<path class="st1" d="M-558.9-92.6l-3.4,24h10.9l2.8-19.9C-551.5-90.3-555-91.7-558.9-92.6z"/>
			<path class="st1" d="M-547.5-95.6l1.2-8.5h-11l-0.7,4.8C-554.2-98.4-550.7-97.2-547.5-95.6z"/>
		</g>
		<g>
			<path class="st1" d="M-569-93.7c-2.5,0-4.9,0.2-7.3,0.6l-3.4,24.5h10.9l3.5-25C-566.5-93.7-567.7-93.7-569-93.7z"/>
			<path class="st1" d="M-569-100.4c1.6,0,3.1,0.1,4.6,0.2l3.3-23.6h-11l-3.3,23.8C-573.2-100.3-571.1-100.4-569-100.4z"/>
		</g>
	</g>
	<g>
		<path class="st1" d="M-740.7-104.1h10.5l-0.7,4.8h0.1c0.4-0.7,1-1.4,1.8-2c0.7-0.7,1.6-1.3,2.5-1.8c0.9-0.5,2-1,3.1-1.3
			c1.2-0.3,2.4-0.5,3.7-0.5c2.5,0,4.6,0.5,6.4,1.5c1.8,1,3,2.6,3.6,4.8c1.6-2.3,3.4-3.9,5.3-4.9c1.9-1,4.2-1.5,6.8-1.5
			c2.4,0,4.3,0.4,5.8,1.2c1.5,0.8,2.7,1.9,3.4,3.3c0.8,1.4,1.2,3,1.4,4.9c0.1,1.9,0.1,3.9-0.2,6l-2.9,21h-11l2.8-20.7
			c0.2-1.7,0.1-3.1-0.4-4.3c-0.5-1.2-1.7-1.8-3.5-1.8c-1.3,0-2.3,0.2-3.2,0.6c-0.9,0.4-1.7,1-2.3,1.7c-0.6,0.7-1.1,1.6-1.5,2.6
			c-0.3,1-0.6,2-0.7,3.1l-2.6,18.8h-11l2.6-18.8c0.1-0.6,0.2-1.4,0.3-2.3c0.1-0.9,0-1.8-0.1-2.6c-0.2-0.8-0.5-1.5-1.1-2.1
			c-0.6-0.6-1.5-0.9-2.8-0.9c-1.4,0-2.6,0.3-3.5,0.8c-0.9,0.5-1.7,1.2-2.3,2c-0.6,0.9-1,1.8-1.3,2.9c-0.3,1.1-0.5,2.2-0.7,3.4
			l-2.5,17.7h-10.9L-740.7-104.1z"/>
		<path class="st1" d="M-649.4-68.6h-10.5l0.7-4.8h-0.1c-0.5,0.7-1.1,1.4-1.8,2c-0.7,0.7-1.5,1.3-2.5,1.8c-0.9,0.5-2,1-3.2,1.3
			c-1.2,0.3-2.4,0.5-3.7,0.5c-2.8,0-5-0.4-6.6-1.3c-1.6-0.9-2.8-2-3.5-3.5c-0.7-1.5-1.1-3.3-1.2-5.3c0-2,0.1-4.3,0.4-6.6l2.8-19.6
			h11l-2.5,17.4c-0.1,1-0.3,2.1-0.4,3.2c-0.1,1.1,0,2.1,0.2,3c0.2,0.9,0.7,1.7,1.4,2.3c0.7,0.6,1.7,0.9,3.1,0.9
			c1.4,0,2.6-0.3,3.5-0.8c0.9-0.5,1.7-1.2,2.3-2c0.6-0.9,1-1.8,1.4-2.9c0.3-1.1,0.5-2.2,0.7-3.4l2.5-17.7h11L-649.4-68.6z"/>
		<path class="st1" d="M-635.3-123.8h11l-7.7,55.2H-643L-635.3-123.8z"/>
		<path class="st1" d="M-597.8-95.3h-9.6l-1.7,11.8c-0.1,1-0.2,1.9-0.2,2.7c0,0.8,0.1,1.5,0.4,2.1c0.3,0.6,0.7,1,1.4,1.4
			c0.7,0.3,1.6,0.5,2.7,0.5c0.6,0,1.4-0.1,2.3-0.2c0.9-0.1,1.7-0.4,2.2-0.8l-1.2,9.1c-1.3,0.4-2.6,0.7-3.9,0.9
			c-1.3,0.1-2.6,0.2-3.9,0.2c-1.9,0-3.5-0.2-5-0.6c-1.5-0.4-2.8-1-3.8-1.9c-1-0.9-1.8-2-2.3-3.3c-0.5-1.4-0.6-3-0.3-5l2.4-16.9h-7
			l1.2-8.8h7l1.5-10.5h10.9l-1.5,10.5h9.6L-597.8-95.3z"/>
		<g>
			<path class="st1" d="M-582.1-98.7l0.7-5.4h-11l-1.5,10.4C-590.3-95.9-586.4-97.6-582.1-98.7z"/>
			<path class="st1" d="M-595.1-83.9l-2.1,15.3h10.9l3.2-22.8C-588-89.7-592.3-87.1-595.1-83.9z"/>
		</g>
	</g>
</g>
<g>
	<g>
		<path d="M-343.1-56.6c-0.3-0.4-0.7-0.7-1-0.8c-0.3-0.1-0.7-0.2-1.1-0.2c-0.6,0-1.1,0.1-1.5,0.3c-0.5,0.2-0.9,0.5-1.3,0.8
			c-0.4,0.3-0.7,0.7-0.9,1.2c-0.2,0.5-0.4,1-0.5,1.5c-0.1,0.6-0.1,1.1,0,1.6c0.1,0.5,0.3,0.9,0.6,1.2c0.3,0.4,0.6,0.6,1,0.8
			c0.4,0.2,0.9,0.3,1.5,0.3c0.4,0,0.9-0.1,1.3-0.3c0.4-0.2,0.9-0.5,1.3-1l1.4,1.1c-0.6,0.7-1.2,1.1-2,1.4c-0.7,0.3-1.5,0.5-2.3,0.5
			c-0.8,0-1.6-0.1-2.2-0.4c-0.7-0.3-1.2-0.6-1.6-1.1c-0.4-0.5-0.7-1.1-0.9-1.7c-0.2-0.7-0.2-1.4-0.1-2.3c0.1-0.8,0.4-1.6,0.7-2.3
			c0.4-0.7,0.8-1.3,1.4-1.8s1.2-0.9,1.9-1.1c0.7-0.3,1.5-0.4,2.3-0.4c0.7,0,1.4,0.1,1.9,0.4c0.6,0.3,1.1,0.7,1.5,1.3L-343.1-56.6z"
			/>
		<path d="M-330.5-53.7c0.1-0.8,0.4-1.6,0.7-2.3c0.4-0.7,0.8-1.3,1.4-1.8s1.2-0.9,1.9-1.1c0.7-0.3,1.5-0.4,2.3-0.4
			c0.8,0,1.6,0.1,2.2,0.4c0.7,0.3,1.2,0.6,1.6,1.1c0.4,0.5,0.7,1.1,0.9,1.8c0.2,0.7,0.2,1.5,0.1,2.3c-0.1,0.8-0.4,1.6-0.7,2.3
			c-0.4,0.7-0.8,1.3-1.4,1.8c-0.6,0.5-1.2,0.9-1.9,1.1s-1.5,0.4-2.3,0.4c-0.8,0-1.6-0.1-2.2-0.4c-0.7-0.3-1.2-0.6-1.6-1.1
			c-0.4-0.5-0.7-1.1-0.9-1.7C-330.6-52.1-330.7-52.9-330.5-53.7z M-328.6-53.8c-0.1,0.6-0.1,1.1,0,1.6c0.1,0.5,0.3,0.9,0.6,1.2
			c0.3,0.4,0.6,0.6,1,0.8c0.4,0.2,0.9,0.3,1.5,0.3c0.6,0,1.1-0.1,1.5-0.3c0.5-0.2,0.9-0.5,1.3-0.8c0.4-0.4,0.7-0.8,0.9-1.2
			s0.4-1,0.5-1.6c0.1-0.5,0.1-1-0.1-1.5c-0.1-0.5-0.3-0.9-0.6-1.2c-0.3-0.3-0.6-0.6-1-0.8c-0.4-0.2-0.9-0.3-1.5-0.3
			s-1.1,0.1-1.5,0.3c-0.5,0.2-0.9,0.5-1.3,0.8c-0.4,0.3-0.7,0.7-0.9,1.2C-328.3-54.9-328.5-54.4-328.6-53.8z"/>
		<path d="M-306.2-59.1h2.5l4,7.9h0l1.1-7.9h1.9l-1.5,10.6h-2.4l-4.1-8.1h0l-1.1,8.1h-1.9L-306.2-59.1z"/>
		<path d="M-281.9-57.4h-3.3l0.2-1.7h8.4l-0.2,1.7h-3.3l-1.2,8.9h-1.9L-281.9-57.4z"/>
		<path d="M-262.6-59.1h1.6l3.1,10.6h-2.2l-0.7-2.4h-4.6l-1.3,2.4h-2.1L-262.6-59.1z M-261.2-52.5l-1-4.3l-2.3,4.3H-261.2z"/>
		<path d="M-237.8-56.6c-0.3-0.4-0.7-0.7-1-0.8c-0.3-0.1-0.7-0.2-1.1-0.2c-0.6,0-1.1,0.1-1.5,0.3c-0.5,0.2-0.9,0.5-1.3,0.8
			c-0.4,0.3-0.7,0.7-0.9,1.2c-0.2,0.5-0.4,1-0.5,1.5c-0.1,0.6-0.1,1.1,0,1.6c0.1,0.5,0.3,0.9,0.6,1.2c0.3,0.4,0.6,0.6,1,0.8
			c0.4,0.2,0.9,0.3,1.5,0.3c0.4,0,0.9-0.1,1.3-0.3c0.4-0.2,0.9-0.5,1.3-1l1.4,1.1c-0.6,0.7-1.2,1.1-2,1.4c-0.7,0.3-1.5,0.5-2.3,0.5
			c-0.8,0-1.6-0.1-2.2-0.4c-0.7-0.3-1.2-0.6-1.6-1.1c-0.4-0.5-0.7-1.1-0.9-1.7c-0.2-0.7-0.2-1.4-0.1-2.3c0.1-0.8,0.4-1.6,0.7-2.3
			c0.4-0.7,0.8-1.3,1.4-1.8s1.2-0.9,1.9-1.1c0.7-0.3,1.5-0.4,2.3-0.4c0.7,0,1.4,0.1,1.9,0.4c0.6,0.3,1.1,0.7,1.5,1.3L-237.8-56.6z"
			/>
		<path d="M-222-57.4h-3.3l0.2-1.7h8.4l-0.2,1.7h-3.3l-1.2,8.9h-1.9L-222-57.4z"/>
		<path d="M-183-56.6c-0.3-0.4-0.7-0.7-1-0.8c-0.3-0.1-0.7-0.2-1.1-0.2c-0.6,0-1.1,0.1-1.5,0.3c-0.5,0.2-0.9,0.5-1.3,0.8
			c-0.4,0.3-0.7,0.7-0.9,1.2c-0.2,0.5-0.4,1-0.5,1.5c-0.1,0.6-0.1,1.1,0,1.6c0.1,0.5,0.3,0.9,0.6,1.2c0.3,0.4,0.6,0.6,1,0.8
			c0.4,0.2,0.9,0.3,1.5,0.3c0.4,0,0.9-0.1,1.3-0.3c0.4-0.2,0.9-0.5,1.3-1l1.4,1.1c-0.6,0.7-1.2,1.1-2,1.4c-0.7,0.3-1.5,0.5-2.3,0.5
			c-0.8,0-1.6-0.1-2.2-0.4c-0.7-0.3-1.2-0.6-1.6-1.1c-0.4-0.5-0.7-1.1-0.9-1.7c-0.2-0.7-0.2-1.4-0.1-2.3c0.1-0.8,0.4-1.6,0.7-2.3
			c0.4-0.7,0.8-1.3,1.4-1.8s1.2-0.9,1.9-1.1c0.7-0.3,1.5-0.4,2.3-0.4c0.7,0,1.4,0.1,1.9,0.4c0.6,0.3,1.1,0.7,1.5,1.3L-183-56.6z"/>
		<path d="M-169.1-59.1h7l-0.2,1.7h-5.1l-0.4,2.6h4.9l-0.2,1.7h-4.9l-0.4,2.9h5.4l-0.2,1.7h-7.3L-169.1-59.1z"/>
		<path d="M-149.5-59.1h2.5l4,7.9h0l1.1-7.9h1.9l-1.5,10.6h-2.4l-4.1-8.1h0l-1.1,8.1h-1.9L-149.5-59.1z"/>
		<path d="M-125.1-57.4h-3.3l0.2-1.7h8.4l-0.2,1.7h-3.3l-1.2,8.9h-1.9L-125.1-57.4z"/>
		<path d="M-107.9-59.1h7l-0.2,1.7h-5.1l-0.4,2.6h4.9L-102-53h-4.9l-0.4,2.9h5.4l-0.2,1.7h-7.3L-107.9-59.1z"/>
		<path d="M-88.2-59.1h3.7c0.5,0,1,0,1.5,0.1c0.5,0.1,0.9,0.3,1.2,0.5c0.3,0.2,0.6,0.5,0.8,0.9s0.2,0.9,0.1,1.5
			c-0.1,0.4-0.2,0.7-0.3,1.1c-0.2,0.3-0.4,0.6-0.6,0.9c-0.2,0.2-0.5,0.5-0.9,0.6s-0.7,0.3-1.1,0.3l2.2,4.7H-84l-1.8-4.5h-1.4
			l-0.6,4.5h-1.9L-88.2-59.1z M-85.5-54.6c0.3,0,0.5,0,0.8,0c0.3,0,0.5-0.1,0.8-0.2c0.2-0.1,0.4-0.2,0.6-0.4s0.3-0.5,0.3-0.8
			c0-0.3,0-0.6-0.1-0.8s-0.3-0.3-0.5-0.4c-0.2-0.1-0.4-0.2-0.7-0.2c-0.2,0-0.5,0-0.7,0h-1.6l-0.4,2.9H-85.5z"/>
	</g>
	<g>
		<path d="M-146.9-104.1h10.5l-0.7,4.8h0.1c0.4-0.7,1-1.4,1.8-2c0.7-0.7,1.6-1.3,2.5-1.8c0.9-0.5,2-1,3.1-1.3
			c1.2-0.3,2.4-0.5,3.7-0.5c2.8,0,5,0.4,6.6,1.3c1.6,0.9,2.8,2,3.5,3.5c0.7,1.5,1.1,3.3,1.2,5.3c0,2-0.1,4.3-0.4,6.6l-2.7,19.6h-11
			l2.4-17.4c0.1-1,0.3-2.1,0.4-3.2c0.1-1.1,0-2.1-0.2-3c-0.2-0.9-0.7-1.7-1.4-2.3s-1.7-0.9-3.1-0.9c-1.4,0-2.6,0.3-3.5,0.8
			c-0.9,0.5-1.7,1.2-2.3,2c-0.6,0.9-1,1.8-1.3,2.9c-0.3,1.1-0.5,2.2-0.7,3.4l-2.5,17.7h-10.9L-146.9-104.1z"/>
		<path d="M-77-74.8c-2,2.2-4.5,4-7.3,5.2c-2.8,1.2-5.7,1.8-8.6,1.8c-2.7,0-5.2-0.4-7.5-1.3c-2.3-0.9-4.2-2.1-5.7-3.8
			c-1.5-1.6-2.7-3.6-3.4-5.9c-0.7-2.3-0.9-4.8-0.5-7.7c0.4-2.8,1.3-5.4,2.6-7.7c1.3-2.3,3-4.2,5-5.9c2-1.6,4.3-2.9,6.8-3.8
			c2.5-0.9,5.2-1.3,7.9-1.3c2.5,0,4.8,0.4,6.7,1.3c1.9,0.9,3.5,2.1,4.7,3.8c1.2,1.6,2.1,3.6,2.5,5.9c0.5,2.3,0.5,4.8,0.1,7.7
			l-0.5,3.4h-25.4c0.1,2.1,0.9,3.8,2.2,5c1.3,1.2,3,1.9,5.1,1.9c1.8,0,3.4-0.4,4.7-1.2c1.3-0.8,2.6-1.8,3.7-3.1L-77-74.8z
			 M-84.1-90.4c0.3-1.8-0.1-3.4-1.2-4.7c-1.1-1.3-2.6-2-4.6-2c-1.2,0-2.3,0.2-3.3,0.6c-1,0.4-1.8,0.9-2.6,1.5
			c-0.7,0.6-1.3,1.3-1.8,2.1c-0.5,0.8-0.8,1.6-1,2.5H-84.1z"/>
		<g>
			<path d="M-165.9-92.6l-3.4,24h10.9l2.8-19.9C-158.5-90.3-162-91.7-165.9-92.6z"/>
			<path d="M-154.5-95.6l1.2-8.5h-11l-0.7,4.8C-161.2-98.4-157.7-97.2-154.5-95.6z"/>
		</g>
		<g>
			<path d="M-176-93.7c-2.5,0-4.9,0.2-7.3,0.6l-3.4,24.5h10.9l3.5-25C-173.5-93.7-174.8-93.7-176-93.7z"/>
			<path d="M-176-100.4c1.6,0,3.1,0.1,4.6,0.2l3.3-23.6h-11l-3.3,23.8C-180.3-100.3-178.1-100.4-176-100.4z"/>
		</g>
	</g>
	<g>
		<path d="M-347.7-104.1h10.5l-0.7,4.8h0.1c0.4-0.7,1-1.4,1.8-2c0.7-0.7,1.6-1.3,2.5-1.8c0.9-0.5,2-1,3.1-1.3
			c1.2-0.3,2.4-0.5,3.7-0.5c2.5,0,4.6,0.5,6.4,1.5c1.8,1,3,2.6,3.6,4.8c1.6-2.3,3.4-3.9,5.3-4.9c1.9-1,4.2-1.5,6.8-1.5
			c2.4,0,4.3,0.4,5.8,1.2c1.5,0.8,2.7,1.9,3.4,3.3c0.8,1.4,1.2,3,1.4,4.9c0.1,1.9,0.1,3.9-0.2,6l-2.9,21h-11l2.8-20.7
			c0.2-1.7,0.1-3.1-0.4-4.3c-0.5-1.2-1.7-1.8-3.5-1.8c-1.3,0-2.3,0.2-3.2,0.6c-0.9,0.4-1.7,1-2.3,1.7c-0.6,0.7-1.1,1.6-1.5,2.6
			c-0.3,1-0.6,2-0.7,3.1l-2.6,18.8h-11l2.6-18.8c0.1-0.6,0.2-1.4,0.3-2.3c0.1-0.9,0-1.8-0.1-2.6c-0.2-0.8-0.5-1.5-1.1-2.1
			c-0.6-0.6-1.5-0.9-2.8-0.9c-1.4,0-2.6,0.3-3.5,0.8c-0.9,0.5-1.7,1.2-2.3,2c-0.6,0.9-1,1.8-1.3,2.9c-0.3,1.1-0.5,2.2-0.7,3.4
			l-2.5,17.7h-10.9L-347.7-104.1z"/>
		<path d="M-256.5-68.6H-267l0.7-4.8h-0.1c-0.5,0.7-1.1,1.4-1.8,2c-0.7,0.7-1.5,1.3-2.5,1.8c-0.9,0.5-2,1-3.2,1.3
			c-1.2,0.3-2.4,0.5-3.7,0.5c-2.8,0-5-0.4-6.6-1.3c-1.6-0.9-2.8-2-3.5-3.5c-0.7-1.5-1.1-3.3-1.2-5.3c0-2,0.1-4.3,0.4-6.6l2.8-19.6
			h11l-2.5,17.4c-0.1,1-0.3,2.1-0.4,3.2c-0.1,1.1,0,2.1,0.2,3c0.2,0.9,0.7,1.7,1.4,2.3c0.7,0.6,1.7,0.9,3.1,0.9
			c1.4,0,2.6-0.3,3.5-0.8c0.9-0.5,1.7-1.2,2.3-2c0.6-0.9,1-1.8,1.4-2.9c0.3-1.1,0.5-2.2,0.7-3.4l2.5-17.7h11L-256.5-68.6z"/>
		<path d="M-242.3-123.8h11l-7.7,55.2H-250L-242.3-123.8z"/>
		<path d="M-204.8-95.3h-9.6l-1.7,11.8c-0.1,1-0.2,1.9-0.2,2.7c0,0.8,0.1,1.5,0.4,2.1c0.3,0.6,0.7,1,1.4,1.4
			c0.7,0.3,1.6,0.5,2.7,0.5c0.6,0,1.4-0.1,2.3-0.2c0.9-0.1,1.7-0.4,2.2-0.8l-1.2,9.1c-1.3,0.4-2.6,0.7-3.9,0.9
			c-1.3,0.1-2.6,0.2-3.9,0.2c-1.9,0-3.5-0.2-5-0.6c-1.5-0.4-2.8-1-3.8-1.9c-1-0.9-1.8-2-2.3-3.3c-0.5-1.4-0.6-3-0.3-5l2.4-16.9h-7
			l1.2-8.8h7l1.5-10.5h10.9l-1.5,10.5h9.6L-204.8-95.3z"/>
		<g>
			<path d="M-189.1-98.7l0.7-5.4h-11l-1.5,10.4C-197.4-95.9-193.4-97.6-189.1-98.7z"/>
			<path d="M-202.1-83.9l-2.1,15.3h10.9l3.2-22.8C-195.1-89.7-199.3-87.1-202.1-83.9z"/>
		</g>
	</g>
</g>
<g>
	<g>
		<path class="st2" d="M52.9-56.6c-0.3-0.4-0.7-0.7-1-0.8c-0.3-0.1-0.7-0.2-1.1-0.2c-0.6,0-1.1,0.1-1.5,0.3
			c-0.5,0.2-0.9,0.5-1.3,0.8c-0.4,0.3-0.7,0.7-0.9,1.2c-0.2,0.5-0.4,1-0.5,1.5c-0.1,0.6-0.1,1.1,0,1.6c0.1,0.5,0.3,0.9,0.6,1.2
			c0.3,0.4,0.6,0.6,1,0.8c0.4,0.2,0.9,0.3,1.5,0.3c0.4,0,0.9-0.1,1.3-0.3c0.4-0.2,0.9-0.5,1.3-1l1.4,1.1c-0.6,0.7-1.2,1.1-2,1.4
			c-0.7,0.3-1.5,0.5-2.3,0.5c-0.8,0-1.6-0.1-2.2-0.4c-0.7-0.3-1.2-0.6-1.6-1.1c-0.4-0.5-0.7-1.1-0.9-1.7c-0.2-0.7-0.2-1.4-0.1-2.3
			c0.1-0.8,0.4-1.6,0.7-2.3c0.4-0.7,0.8-1.3,1.4-1.8s1.2-0.9,1.9-1.1c0.7-0.3,1.5-0.4,2.3-0.4c0.7,0,1.4,0.1,1.9,0.4
			c0.6,0.3,1.1,0.7,1.5,1.3L52.9-56.6z"/>
		<path class="st2" d="M65.4-53.7c0.1-0.8,0.4-1.6,0.7-2.3c0.4-0.7,0.8-1.3,1.4-1.8s1.2-0.9,1.9-1.1c0.7-0.3,1.5-0.4,2.3-0.4
			c0.8,0,1.6,0.1,2.2,0.4c0.7,0.3,1.2,0.6,1.6,1.1c0.4,0.5,0.7,1.1,0.9,1.8c0.2,0.7,0.2,1.5,0.1,2.3c-0.1,0.8-0.4,1.6-0.7,2.3
			c-0.4,0.7-0.8,1.3-1.4,1.8c-0.6,0.5-1.2,0.9-1.9,1.1s-1.5,0.4-2.3,0.4c-0.8,0-1.6-0.1-2.2-0.4c-0.7-0.3-1.2-0.6-1.6-1.1
			c-0.4-0.5-0.7-1.1-0.9-1.7C65.3-52.1,65.3-52.9,65.4-53.7z M67.4-53.8c-0.1,0.6-0.1,1.1,0,1.6c0.1,0.5,0.3,0.9,0.6,1.2
			c0.3,0.4,0.6,0.6,1,0.8c0.4,0.2,0.9,0.3,1.5,0.3c0.6,0,1.1-0.1,1.5-0.3c0.5-0.2,0.9-0.5,1.3-0.8c0.4-0.4,0.7-0.8,0.9-1.2
			s0.4-1,0.5-1.6c0.1-0.5,0.1-1-0.1-1.5c-0.1-0.5-0.3-0.9-0.6-1.2c-0.3-0.3-0.6-0.6-1-0.8c-0.4-0.2-0.9-0.3-1.5-0.3
			s-1.1,0.1-1.5,0.3c-0.5,0.2-0.9,0.5-1.3,0.8c-0.4,0.3-0.7,0.7-0.9,1.2C67.7-54.9,67.5-54.4,67.4-53.8z"/>
		<path class="st2" d="M89.7-59.1h2.5l4,7.9h0l1.1-7.9h1.9l-1.5,10.6h-2.4l-4.1-8.1h0l-1.1,8.1h-1.9L89.7-59.1z"/>
		<path class="st2" d="M114.1-57.4h-3.3l0.2-1.7h8.4l-0.2,1.7H116l-1.2,8.9h-1.9L114.1-57.4z"/>
		<path class="st2" d="M133.4-59.1h1.6l3.1,10.6h-2.2l-0.7-2.4h-4.6l-1.3,2.4h-2.1L133.4-59.1z M134.8-52.5l-1-4.3l-2.3,4.3H134.8z"
			/>
		<path class="st2" d="M158.2-56.6c-0.3-0.4-0.7-0.7-1-0.8c-0.3-0.1-0.7-0.2-1.1-0.2c-0.6,0-1.1,0.1-1.5,0.3
			c-0.5,0.2-0.9,0.5-1.3,0.8c-0.4,0.3-0.7,0.7-0.9,1.2c-0.2,0.5-0.4,1-0.5,1.5c-0.1,0.6-0.1,1.1,0,1.6c0.1,0.5,0.3,0.9,0.6,1.2
			c0.3,0.4,0.6,0.6,1,0.8c0.4,0.2,0.9,0.3,1.5,0.3c0.4,0,0.9-0.1,1.3-0.3c0.4-0.2,0.9-0.5,1.3-1l1.4,1.1c-0.6,0.7-1.2,1.1-2,1.4
			c-0.7,0.3-1.5,0.5-2.3,0.5c-0.8,0-1.6-0.1-2.2-0.4c-0.7-0.3-1.2-0.6-1.6-1.1c-0.4-0.5-0.7-1.1-0.9-1.7c-0.2-0.7-0.2-1.4-0.1-2.3
			c0.1-0.8,0.4-1.6,0.7-2.3c0.4-0.7,0.8-1.3,1.4-1.8s1.2-0.9,1.9-1.1c0.7-0.3,1.5-0.4,2.3-0.4c0.7,0,1.4,0.1,1.9,0.4
			c0.6,0.3,1.1,0.7,1.5,1.3L158.2-56.6z"/>
		<path class="st2" d="M174-57.4h-3.3l0.2-1.7h8.4l-0.2,1.7h-3.3l-1.2,8.9h-1.9L174-57.4z"/>
		<path class="st2" d="M213-56.6c-0.3-0.4-0.7-0.7-1-0.8c-0.3-0.1-0.7-0.2-1.1-0.2c-0.6,0-1.1,0.1-1.5,0.3c-0.5,0.2-0.9,0.5-1.3,0.8
			c-0.4,0.3-0.7,0.7-0.9,1.2c-0.2,0.5-0.4,1-0.5,1.5c-0.1,0.6-0.1,1.1,0,1.6c0.1,0.5,0.3,0.9,0.6,1.2c0.3,0.4,0.6,0.6,1,0.8
			c0.4,0.2,0.9,0.3,1.5,0.3c0.4,0,0.9-0.1,1.3-0.3c0.4-0.2,0.9-0.5,1.3-1l1.4,1.1c-0.6,0.7-1.2,1.1-2,1.4c-0.7,0.3-1.5,0.5-2.3,0.5
			c-0.8,0-1.6-0.1-2.2-0.4c-0.7-0.3-1.2-0.6-1.6-1.1c-0.4-0.5-0.7-1.1-0.9-1.7c-0.2-0.7-0.2-1.4-0.1-2.3c0.1-0.8,0.4-1.6,0.7-2.3
			c0.4-0.7,0.8-1.3,1.4-1.8s1.2-0.9,1.9-1.1c0.7-0.3,1.5-0.4,2.3-0.4c0.7,0,1.4,0.1,1.9,0.4c0.6,0.3,1.1,0.7,1.5,1.3L213-56.6z"/>
		<path class="st2" d="M226.8-59.1h7l-0.2,1.7h-5.1l-0.4,2.6h4.9l-0.2,1.7h-4.9l-0.4,2.9h5.4l-0.2,1.7h-7.3L226.8-59.1z"/>
		<path class="st2" d="M246.5-59.1h2.5l4,7.9h0l1.1-7.9h1.9l-1.5,10.6h-2.4l-4.1-8.1h0l-1.1,8.1H245L246.5-59.1z"/>
		<path class="st2" d="M270.9-57.4h-3.3l0.2-1.7h8.4l-0.2,1.7h-3.3l-1.2,8.9h-1.9L270.9-57.4z"/>
		<path class="st2" d="M288.1-59.1h7l-0.2,1.7h-5.1l-0.4,2.6h4.9L294-53h-4.9l-0.4,2.9h5.4l-0.2,1.7h-7.3L288.1-59.1z"/>
		<path class="st2" d="M307.7-59.1h3.7c0.5,0,1,0,1.5,0.1c0.5,0.1,0.9,0.3,1.2,0.5c0.3,0.2,0.6,0.5,0.8,0.9s0.2,0.9,0.1,1.5
			c-0.1,0.4-0.2,0.7-0.3,1.1c-0.2,0.3-0.4,0.6-0.6,0.9c-0.2,0.2-0.5,0.5-0.9,0.6s-0.7,0.3-1.1,0.3l2.2,4.7H312l-1.8-4.5h-1.4
			l-0.6,4.5h-1.9L307.7-59.1z M310.5-54.6c0.3,0,0.5,0,0.8,0c0.3,0,0.5-0.1,0.8-0.2c0.2-0.1,0.4-0.2,0.6-0.4s0.3-0.5,0.3-0.8
			c0-0.3,0-0.6-0.1-0.8s-0.3-0.3-0.5-0.4c-0.2-0.1-0.4-0.2-0.7-0.2c-0.2,0-0.5,0-0.7,0h-1.6l-0.4,2.9H310.5z"/>
	</g>
	<g>
		<path class="st2" d="M249.1-104.1h10.5l-0.7,4.8h0.1c0.4-0.7,1-1.4,1.8-2c0.7-0.7,1.6-1.3,2.5-1.8c0.9-0.5,2-1,3.1-1.3
			c1.2-0.3,2.4-0.5,3.7-0.5c2.8,0,5,0.4,6.6,1.3c1.6,0.9,2.8,2,3.5,3.5c0.7,1.5,1.1,3.3,1.2,5.3c0,2-0.1,4.3-0.4,6.6l-2.7,19.6h-11
			l2.4-17.4c0.1-1,0.3-2.1,0.4-3.2c0.1-1.1,0-2.1-0.2-3c-0.2-0.9-0.7-1.7-1.4-2.3s-1.7-0.9-3.1-0.9c-1.4,0-2.6,0.3-3.5,0.8
			c-0.9,0.5-1.7,1.2-2.3,2c-0.6,0.9-1,1.8-1.3,2.9c-0.3,1.1-0.5,2.2-0.7,3.4l-2.5,17.7h-10.9L249.1-104.1z"/>
		<path class="st2" d="M319-74.8c-2,2.2-4.5,4-7.3,5.2c-2.8,1.2-5.7,1.8-8.6,1.8c-2.7,0-5.2-0.4-7.5-1.3c-2.3-0.9-4.2-2.1-5.7-3.8
			c-1.5-1.6-2.7-3.6-3.4-5.9c-0.7-2.3-0.9-4.8-0.5-7.7c0.4-2.8,1.3-5.4,2.6-7.7c1.3-2.3,3-4.2,5-5.9c2-1.6,4.3-2.9,6.8-3.8
			c2.5-0.9,5.2-1.3,7.9-1.3c2.5,0,4.8,0.4,6.7,1.3c1.9,0.9,3.5,2.1,4.7,3.8c1.2,1.6,2.1,3.6,2.5,5.9c0.5,2.3,0.5,4.8,0.1,7.7
			l-0.5,3.4h-25.4c0.1,2.1,0.9,3.8,2.2,5c1.3,1.2,3,1.9,5.1,1.9c1.8,0,3.4-0.4,4.7-1.2c1.3-0.8,2.6-1.8,3.7-3.1L319-74.8z
			 M311.9-90.4c0.3-1.8-0.1-3.4-1.2-4.7c-1.1-1.3-2.6-2-4.6-2c-1.2,0-2.3,0.2-3.3,0.6c-1,0.4-1.8,0.9-2.6,1.5
			c-0.7,0.6-1.3,1.3-1.8,2.1c-0.5,0.8-0.8,1.6-1,2.5H311.9z"/>
		<g>
			<path class="st2" d="M230.1-92.6l-3.4,24h10.9l2.8-19.9C237.5-90.3,233.9-91.7,230.1-92.6z"/>
			<path class="st2" d="M241.5-95.6l1.2-8.5h-11l-0.7,4.8C234.8-98.4,238.3-97.2,241.5-95.6z"/>
		</g>
		<g>
			<path class="st2" d="M220-93.7c-2.5,0-4.9,0.2-7.3,0.6l-3.4,24.5h10.9l3.5-25C222.5-93.7,221.2-93.7,220-93.7z"/>
			<path class="st2" d="M220-100.4c1.6,0,3.1,0.1,4.6,0.2l3.3-23.6h-11l-3.3,23.8C215.7-100.3,217.8-100.4,220-100.4z"/>
		</g>
	</g>
	<g>
		<path class="st2" d="M48.3-104.1h10.5l-0.7,4.8h0.1c0.4-0.7,1-1.4,1.8-2c0.7-0.7,1.6-1.3,2.5-1.8c0.9-0.5,2-1,3.1-1.3
			c1.2-0.3,2.4-0.5,3.7-0.5c2.5,0,4.6,0.5,6.4,1.5c1.8,1,3,2.6,3.6,4.8c1.6-2.3,3.4-3.9,5.3-4.9c1.9-1,4.2-1.5,6.8-1.5
			c2.4,0,4.3,0.4,5.8,1.2c1.5,0.8,2.7,1.9,3.4,3.3c0.8,1.4,1.2,3,1.4,4.9c0.1,1.9,0.1,3.9-0.2,6l-2.9,21h-11L91-89.3
			c0.2-1.7,0.1-3.1-0.4-4.3c-0.5-1.2-1.7-1.8-3.5-1.8c-1.3,0-2.3,0.2-3.2,0.6c-0.9,0.4-1.7,1-2.3,1.7c-0.6,0.7-1.1,1.6-1.5,2.6
			c-0.3,1-0.6,2-0.7,3.1l-2.6,18.8h-11l2.6-18.8c0.1-0.6,0.2-1.4,0.3-2.3c0.1-0.9,0-1.8-0.1-2.6c-0.2-0.8-0.5-1.5-1.1-2.1
			c-0.6-0.6-1.5-0.9-2.8-0.9c-1.4,0-2.6,0.3-3.5,0.8c-0.9,0.5-1.7,1.2-2.3,2c-0.6,0.9-1,1.8-1.3,2.9c-0.3,1.1-0.5,2.2-0.7,3.4
			l-2.5,17.7H43.3L48.3-104.1z"/>
		<path class="st2" d="M139.5-68.6H129l0.7-4.8h-0.1c-0.5,0.7-1.1,1.4-1.8,2c-0.7,0.7-1.5,1.3-2.5,1.8c-0.9,0.5-2,1-3.2,1.3
			c-1.2,0.3-2.4,0.5-3.7,0.5c-2.8,0-5-0.4-6.6-1.3c-1.6-0.9-2.8-2-3.5-3.5c-0.7-1.5-1.1-3.3-1.2-5.3c0-2,0.1-4.3,0.4-6.6l2.8-19.6
			h11l-2.5,17.4c-0.1,1-0.3,2.1-0.4,3.2c-0.1,1.1,0,2.1,0.2,3c0.2,0.9,0.7,1.7,1.4,2.3c0.7,0.6,1.7,0.9,3.1,0.9
			c1.4,0,2.6-0.3,3.5-0.8c0.9-0.5,1.7-1.2,2.3-2c0.6-0.9,1-1.8,1.4-2.9c0.3-1.1,0.5-2.2,0.7-3.4l2.5-17.7h11L139.5-68.6z"/>
		<path class="st2" d="M153.7-123.8h11l-7.7,55.2h-10.9L153.7-123.8z"/>
		<path class="st2" d="M191.2-95.3h-9.6l-1.7,11.8c-0.1,1-0.2,1.9-0.2,2.7c0,0.8,0.1,1.5,0.4,2.1c0.3,0.6,0.7,1,1.4,1.4
			c0.7,0.3,1.6,0.5,2.7,0.5c0.6,0,1.4-0.1,2.3-0.2c0.9-0.1,1.7-0.4,2.2-0.8l-1.2,9.1c-1.3,0.4-2.6,0.7-3.9,0.9
			c-1.3,0.1-2.6,0.2-3.9,0.2c-1.9,0-3.5-0.2-5-0.6c-1.5-0.4-2.8-1-3.8-1.9c-1-0.9-1.8-2-2.3-3.3c-0.5-1.4-0.6-3-0.3-5l2.4-16.9h-7
			l1.2-8.8h7l1.5-10.5h10.9l-1.5,10.5h9.6L191.2-95.3z"/>
		<g>
			<path class="st2" d="M206.9-98.7l0.7-5.4h-11l-1.5,10.4C198.6-95.9,202.6-97.6,206.9-98.7z"/>
			<path class="st2" d="M193.9-83.9l-2.1,15.3h10.9l3.2-22.8C200.9-89.7,196.7-87.1,193.9-83.9z"/>
		</g>
	</g>
</g>
<g>
	<polygon class="st0" points="-835.5,119 -1173.4,119 -1156.4,5 -818.6,5 	"/>
	<g>
		<path class="st1" d="M-1130.7,43.9h10.5l-0.7,4.8h0.1c0.4-0.7,1-1.4,1.8-2c0.7-0.7,1.6-1.3,2.5-1.8c0.9-0.5,2-1,3.1-1.3
			c1.2-0.3,2.4-0.5,3.7-0.5c2.5,0,4.6,0.5,6.4,1.5c1.8,1,3,2.6,3.6,4.8c1.6-2.3,3.4-3.9,5.3-4.9c1.9-1,4.2-1.5,6.8-1.5
			c2.4,0,4.3,0.4,5.8,1.2c1.5,0.8,2.7,1.9,3.4,3.3c0.8,1.4,1.2,3,1.4,4.9c0.1,1.9,0.1,3.9-0.2,6l-2.9,21h-11l2.8-20.7
			c0.2-1.7,0.1-3.1-0.4-4.3c-0.5-1.2-1.7-1.8-3.5-1.8c-1.3,0-2.3,0.2-3.2,0.6c-0.9,0.4-1.7,1-2.3,1.7c-0.6,0.7-1.1,1.6-1.5,2.6
			c-0.3,1-0.6,2-0.7,3.1l-2.6,18.8h-11l2.6-18.8c0.1-0.6,0.2-1.4,0.3-2.3c0.1-0.9,0-1.8-0.1-2.6c-0.2-0.8-0.5-1.5-1.1-2.1
			c-0.6-0.6-1.5-0.9-2.8-0.9c-1.4,0-2.6,0.3-3.5,0.8c-0.9,0.5-1.7,1.2-2.3,2c-0.6,0.9-1,1.8-1.3,2.9c-0.3,1.1-0.5,2.2-0.7,3.4
			l-2.5,17.7h-10.9L-1130.7,43.9z"/>
		<path class="st1" d="M-1039.4,79.4h-10.5l0.7-4.8h-0.1c-0.5,0.7-1.1,1.4-1.8,2c-0.7,0.7-1.5,1.3-2.5,1.8c-0.9,0.5-2,1-3.2,1.3
			c-1.2,0.3-2.4,0.5-3.7,0.5c-2.8,0-5-0.4-6.6-1.3c-1.6-0.9-2.8-2-3.5-3.5c-0.7-1.5-1.1-3.3-1.2-5.3c0-2,0.1-4.3,0.4-6.6l2.8-19.6
			h11l-2.5,17.4c-0.1,1-0.3,2.1-0.4,3.2c-0.1,1.1,0,2.1,0.2,3c0.2,0.9,0.7,1.7,1.4,2.3c0.7,0.6,1.7,0.9,3.1,0.9
			c1.4,0,2.6-0.3,3.5-0.8c0.9-0.5,1.7-1.2,2.3-2c0.6-0.9,1-1.8,1.4-2.9c0.3-1.1,0.5-2.2,0.7-3.4l2.5-17.7h11L-1039.4,79.4z"/>
		<path class="st1" d="M-1025.3,24.2h11l-7.7,55.2h-10.9L-1025.3,24.2z"/>
		<path class="st1" d="M-987.7,52.7h-9.6l-1.7,11.8c-0.1,1-0.2,1.9-0.2,2.7c0,0.8,0.1,1.5,0.4,2.1c0.3,0.6,0.7,1,1.4,1.4
			c0.7,0.3,1.6,0.5,2.7,0.5c0.6,0,1.4-0.1,2.3-0.2c0.9-0.1,1.7-0.4,2.2-0.8l-1.2,9.1c-1.3,0.4-2.6,0.7-3.9,0.9
			c-1.3,0.1-2.6,0.2-3.9,0.2c-1.9,0-3.5-0.2-5-0.6c-1.5-0.4-2.8-1-3.8-1.9c-1-0.9-1.8-2-2.3-3.3c-0.5-1.4-0.6-3-0.3-5l2.4-16.9h-7
			l1.2-8.8h7l1.5-10.5h10.9l-1.5,10.5h9.6L-987.7,52.7z"/>
		<path class="st1" d="M-929.8,43.9h10.5l-0.7,4.8h0.1c0.4-0.7,1-1.4,1.8-2c0.7-0.7,1.6-1.3,2.5-1.8c0.9-0.5,2-1,3.1-1.3
			c1.2-0.3,2.4-0.5,3.7-0.5c2.8,0,5,0.4,6.6,1.3c1.6,0.9,2.8,2,3.5,3.5c0.7,1.5,1.1,3.3,1.2,5.3c0,2-0.1,4.3-0.4,6.6l-2.7,19.6h-11
			l2.4-17.4c0.1-1,0.3-2.1,0.4-3.2c0.1-1.1,0-2.1-0.2-3c-0.2-0.9-0.7-1.7-1.4-2.3s-1.7-0.9-3.1-0.9c-1.4,0-2.6,0.3-3.5,0.8
			c-0.9,0.5-1.7,1.2-2.3,2c-0.6,0.9-1,1.8-1.3,2.9c-0.3,1.1-0.5,2.2-0.7,3.4l-2.5,17.7h-10.9L-929.8,43.9z"/>
		<path class="st1" d="M-860,73.2c-2,2.2-4.5,4-7.3,5.2c-2.8,1.2-5.7,1.8-8.6,1.8c-2.7,0-5.2-0.4-7.5-1.3c-2.3-0.9-4.2-2.1-5.7-3.8
			c-1.5-1.6-2.7-3.6-3.4-5.9c-0.7-2.3-0.9-4.8-0.5-7.7c0.4-2.8,1.3-5.4,2.6-7.7c1.3-2.3,3-4.2,5-5.9c2-1.6,4.3-2.9,6.8-3.8
			c2.5-0.9,5.2-1.3,7.9-1.3c2.5,0,4.8,0.4,6.7,1.3c1.9,0.9,3.5,2.1,4.7,3.8c1.2,1.6,2.1,3.6,2.5,5.9c0.5,2.3,0.5,4.8,0.1,7.7
			l-0.5,3.4h-25.4c0.1,2.1,0.9,3.8,2.2,5c1.3,1.2,3,1.9,5.1,1.9c1.8,0,3.4-0.4,4.7-1.2c1.3-0.8,2.6-1.8,3.7-3.1L-860,73.2z
			 M-867.1,57.6c0.3-1.8-0.1-3.4-1.2-4.7c-1.1-1.3-2.6-2-4.6-2c-1.2,0-2.3,0.2-3.3,0.6c-1,0.4-1.8,0.9-2.6,1.5
			c-0.7,0.6-1.3,1.3-1.8,2.1c-0.5,0.8-0.8,1.6-1,2.5H-867.1z"/>
		<g>
			<path class="st1" d="M-1126,91.4c-0.3-0.4-0.7-0.7-1-0.8c-0.3-0.1-0.7-0.2-1.1-0.2c-0.6,0-1.1,0.1-1.5,0.3
				c-0.5,0.2-0.9,0.5-1.3,0.8c-0.4,0.3-0.7,0.7-0.9,1.2c-0.2,0.5-0.4,1-0.5,1.5c-0.1,0.6-0.1,1.1,0,1.6c0.1,0.5,0.3,0.9,0.6,1.2
				c0.3,0.4,0.6,0.6,1,0.8c0.4,0.2,0.9,0.3,1.5,0.3c0.4,0,0.9-0.1,1.3-0.3c0.4-0.2,0.9-0.5,1.3-1l1.4,1.1c-0.6,0.7-1.2,1.1-2,1.4
				c-0.7,0.3-1.5,0.5-2.3,0.5c-0.8,0-1.6-0.1-2.2-0.4c-0.7-0.3-1.2-0.6-1.6-1.1c-0.4-0.5-0.7-1.1-0.9-1.7c-0.2-0.7-0.2-1.4-0.1-2.3
				c0.1-0.8,0.4-1.6,0.7-2.3c0.4-0.7,0.8-1.3,1.4-1.8s1.2-0.9,1.9-1.1c0.7-0.3,1.5-0.4,2.3-0.4c0.7,0,1.4,0.1,1.9,0.4
				c0.6,0.3,1.1,0.7,1.5,1.3L-1126,91.4z"/>
			<path class="st1" d="M-1113.5,94.3c0.1-0.8,0.4-1.6,0.7-2.3c0.4-0.7,0.8-1.3,1.4-1.8s1.2-0.9,1.9-1.1c0.7-0.3,1.5-0.4,2.3-0.4
				c0.8,0,1.6,0.1,2.2,0.4c0.7,0.3,1.2,0.6,1.6,1.1c0.4,0.5,0.7,1.1,0.9,1.8c0.2,0.7,0.2,1.5,0.1,2.3c-0.1,0.8-0.4,1.6-0.7,2.3
				c-0.4,0.7-0.8,1.3-1.4,1.8c-0.6,0.5-1.2,0.9-1.9,1.1s-1.5,0.4-2.3,0.4c-0.8,0-1.6-0.1-2.2-0.4c-0.7-0.3-1.2-0.6-1.6-1.1
				c-0.4-0.5-0.7-1.1-0.9-1.7C-1113.6,95.9-1113.6,95.1-1113.5,94.3z M-1111.5,94.2c-0.1,0.6-0.1,1.1,0,1.6c0.1,0.5,0.3,0.9,0.6,1.2
				c0.3,0.4,0.6,0.6,1,0.8c0.4,0.2,0.9,0.3,1.5,0.3c0.6,0,1.1-0.1,1.5-0.3c0.5-0.2,0.9-0.5,1.3-0.8c0.4-0.4,0.7-0.8,0.9-1.2
				s0.4-1,0.5-1.6c0.1-0.5,0.1-1-0.1-1.5c-0.1-0.5-0.3-0.9-0.6-1.2c-0.3-0.3-0.6-0.6-1-0.8c-0.4-0.2-0.9-0.3-1.5-0.3
				s-1.1,0.1-1.5,0.3c-0.5,0.2-0.9,0.5-1.3,0.8c-0.4,0.3-0.7,0.7-0.9,1.2C-1111.3,93.1-1111.4,93.6-1111.5,94.2z"/>
			<path class="st1" d="M-1089.2,88.9h2.5l4,7.9h0l1.1-7.9h1.9l-1.5,10.6h-2.4l-4.1-8.1h0l-1.1,8.1h-1.9L-1089.2,88.9z"/>
			<path class="st1" d="M-1064.8,90.6h-3.3l0.2-1.7h8.4l-0.2,1.7h-3.3l-1.2,8.9h-1.9L-1064.8,90.6z"/>
			<path class="st1" d="M-1045.6,88.9h1.6l3.1,10.6h-2.2l-0.7-2.4h-4.6l-1.3,2.4h-2.1L-1045.6,88.9z M-1044.1,95.5l-1-4.3l-2.3,4.3
				H-1044.1z"/>
			<path class="st1" d="M-1020.7,91.4c-0.3-0.4-0.7-0.7-1-0.8c-0.3-0.1-0.7-0.2-1.1-0.2c-0.6,0-1.1,0.1-1.5,0.3
				c-0.5,0.2-0.9,0.5-1.3,0.8c-0.4,0.3-0.7,0.7-0.9,1.2c-0.2,0.5-0.4,1-0.5,1.5c-0.1,0.6-0.1,1.1,0,1.6c0.1,0.5,0.3,0.9,0.6,1.2
				c0.3,0.4,0.6,0.6,1,0.8c0.4,0.2,0.9,0.3,1.5,0.3c0.4,0,0.9-0.1,1.3-0.3c0.4-0.2,0.9-0.5,1.3-1l1.4,1.1c-0.6,0.7-1.2,1.1-2,1.4
				c-0.7,0.3-1.5,0.5-2.3,0.5c-0.8,0-1.6-0.1-2.2-0.4c-0.7-0.3-1.2-0.6-1.6-1.1c-0.4-0.5-0.7-1.1-0.9-1.7c-0.2-0.7-0.2-1.4-0.1-2.3
				c0.1-0.8,0.4-1.6,0.7-2.3c0.4-0.7,0.8-1.3,1.4-1.8s1.2-0.9,1.9-1.1c0.7-0.3,1.5-0.4,2.3-0.4c0.7,0,1.4,0.1,1.9,0.4
				c0.6,0.3,1.1,0.7,1.5,1.3L-1020.7,91.4z"/>
			<path class="st1" d="M-1005,90.6h-3.3l0.2-1.7h8.4l-0.2,1.7h-3.3l-1.2,8.9h-1.9L-1005,90.6z"/>
			<path class="st1" d="M-965.9,91.4c-0.3-0.4-0.7-0.7-1-0.8c-0.3-0.1-0.7-0.2-1.1-0.2c-0.6,0-1.1,0.1-1.5,0.3
				c-0.5,0.2-0.9,0.5-1.3,0.8c-0.4,0.3-0.7,0.7-0.9,1.2c-0.2,0.5-0.4,1-0.5,1.5c-0.1,0.6-0.1,1.1,0,1.6c0.1,0.5,0.3,0.9,0.6,1.2
				c0.3,0.4,0.6,0.6,1,0.8c0.4,0.2,0.9,0.3,1.5,0.3c0.4,0,0.9-0.1,1.3-0.3c0.4-0.2,0.9-0.5,1.3-1l1.4,1.1c-0.6,0.7-1.2,1.1-2,1.4
				c-0.7,0.3-1.5,0.5-2.3,0.5c-0.8,0-1.6-0.1-2.2-0.4c-0.7-0.3-1.2-0.6-1.6-1.1c-0.4-0.5-0.7-1.1-0.9-1.7c-0.2-0.7-0.2-1.4-0.1-2.3
				c0.1-0.8,0.4-1.6,0.7-2.3c0.4-0.7,0.8-1.3,1.4-1.8s1.2-0.9,1.9-1.1c0.7-0.3,1.5-0.4,2.3-0.4c0.7,0,1.4,0.1,1.9,0.4
				c0.6,0.3,1.1,0.7,1.5,1.3L-965.9,91.4z"/>
			<path class="st1" d="M-952.1,88.9h7l-0.2,1.7h-5.1l-0.4,2.6h4.9l-0.2,1.7h-4.9l-0.4,2.9h5.4l-0.2,1.7h-7.3L-952.1,88.9z"/>
			<path class="st1" d="M-932.4,88.9h2.5l4,7.9h0l1.1-7.9h1.9l-1.5,10.6h-2.4l-4.1-8.1h0l-1.1,8.1h-1.9L-932.4,88.9z"/>
			<path class="st1" d="M-908.1,90.6h-3.3l0.2-1.7h8.4l-0.2,1.7h-3.3l-1.2,8.9h-1.9L-908.1,90.6z"/>
			<path class="st1" d="M-890.9,88.9h7l-0.2,1.7h-5.1l-0.4,2.6h4.9L-885,95h-4.9l-0.4,2.9h5.4l-0.2,1.7h-7.3L-890.9,88.9z"/>
			<path class="st1" d="M-871.2,88.9h3.7c0.5,0,1,0,1.5,0.1c0.5,0.1,0.9,0.3,1.2,0.5c0.3,0.2,0.6,0.5,0.8,0.9s0.2,0.9,0.1,1.5
				c-0.1,0.4-0.2,0.7-0.3,1.1c-0.2,0.3-0.4,0.6-0.6,0.9c-0.2,0.2-0.5,0.5-0.9,0.6s-0.7,0.3-1.1,0.3l2.2,4.7h-2.3l-1.8-4.5h-1.4
				l-0.6,4.5h-1.9L-871.2,88.9z M-868.5,93.4c0.3,0,0.5,0,0.8,0c0.3,0,0.5-0.1,0.8-0.2c0.2-0.1,0.4-0.2,0.6-0.4s0.3-0.5,0.3-0.8
				c0-0.3,0-0.6-0.1-0.8s-0.3-0.3-0.5-0.4c-0.2-0.1-0.4-0.2-0.7-0.2c-0.2,0-0.5,0-0.7,0h-1.6l-0.4,2.9H-868.5z"/>
		</g>
		<g>
			<path class="st1" d="M-948.8,55.4l-3.4,24h10.9l2.8-19.9C-941.5,57.7-945,56.3-948.8,55.4z"/>
			<path class="st1" d="M-937.5,52.4l1.2-8.5h-11l-0.7,4.8C-944.2,49.5-940.6,50.8-937.5,52.4z"/>
		</g>
		<g>
			<path class="st1" d="M-959,54.2c-2.5,0-4.9,0.2-7.3,0.6l-3.4,24.5h10.9l3.5-25C-956.5,54.3-957.7,54.2-959,54.2z"/>
			<path class="st1" d="M-959,47.6c1.6,0,3.1,0.1,4.6,0.2l3.3-23.6h-11l-3.3,23.8C-963.2,47.7-961.1,47.6-959,47.6z"/>
		</g>
		<g>
			<path class="st1" d="M-972.1,49.3l0.7-5.4h-11l-1.5,10.4C-980.3,52.1-976.4,50.4-972.1,49.3z"/>
			<path class="st1" d="M-985.1,64.1l-2.1,15.3h10.9l3.2-22.8C-978,58.3-982.2,60.9-985.1,64.1z"/>
		</g>
	</g>
</g>
<g>
	<polygon class="st1" points="-445.6,119 -783.5,119 -766.5,5 -428.6,5 	"/>
	<g>
		<path class="st2" d="M-740.7,43.9h10.5l-0.7,4.8h0.1c0.4-0.7,1-1.4,1.8-2c0.7-0.7,1.6-1.3,2.5-1.8c0.9-0.5,2-1,3.1-1.3
			c1.2-0.3,2.4-0.5,3.7-0.5c2.5,0,4.6,0.5,6.4,1.5c1.8,1,3,2.6,3.6,4.8c1.6-2.3,3.4-3.9,5.3-4.9c1.9-1,4.2-1.5,6.8-1.5
			c2.4,0,4.3,0.4,5.8,1.2c1.5,0.8,2.7,1.9,3.4,3.3c0.8,1.4,1.2,3,1.4,4.9c0.1,1.9,0.1,3.9-0.2,6l-2.9,21h-11l2.8-20.7
			c0.2-1.7,0.1-3.1-0.4-4.3c-0.5-1.2-1.7-1.8-3.5-1.8c-1.3,0-2.3,0.2-3.2,0.6c-0.9,0.4-1.7,1-2.3,1.7c-0.6,0.7-1.1,1.6-1.5,2.6
			c-0.3,1-0.6,2-0.7,3.1l-2.6,18.8h-11l2.6-18.8c0.1-0.6,0.2-1.4,0.3-2.3c0.1-0.9,0-1.8-0.1-2.6c-0.2-0.8-0.5-1.5-1.1-2.1
			c-0.6-0.6-1.5-0.9-2.8-0.9c-1.4,0-2.6,0.3-3.5,0.8c-0.9,0.5-1.7,1.2-2.3,2c-0.6,0.9-1,1.8-1.3,2.9c-0.3,1.1-0.5,2.2-0.7,3.4
			l-2.5,17.7h-10.9L-740.7,43.9z"/>
		<path class="st2" d="M-649.4,79.4h-10.5l0.7-4.8h-0.1c-0.5,0.7-1.1,1.4-1.8,2c-0.7,0.7-1.5,1.3-2.5,1.8c-0.9,0.5-2,1-3.2,1.3
			c-1.2,0.3-2.4,0.5-3.7,0.5c-2.8,0-5-0.4-6.6-1.3c-1.6-0.9-2.8-2-3.5-3.5c-0.7-1.5-1.1-3.3-1.2-5.3c0-2,0.1-4.3,0.4-6.6l2.8-19.6
			h11l-2.5,17.4c-0.1,1-0.3,2.1-0.4,3.2c-0.1,1.1,0,2.1,0.2,3c0.2,0.9,0.7,1.7,1.4,2.3c0.7,0.6,1.7,0.9,3.1,0.9
			c1.4,0,2.6-0.3,3.5-0.8c0.9-0.5,1.7-1.2,2.3-2c0.6-0.9,1-1.8,1.4-2.9c0.3-1.1,0.5-2.2,0.7-3.4l2.5-17.7h11L-649.4,79.4z"/>
		<path class="st2" d="M-635.3,24.2h11l-7.7,55.2H-643L-635.3,24.2z"/>
		<path class="st2" d="M-597.8,52.7h-9.6l-1.7,11.8c-0.1,1-0.2,1.9-0.2,2.7c0,0.8,0.1,1.5,0.4,2.1c0.3,0.6,0.7,1,1.4,1.4
			c0.7,0.3,1.6,0.5,2.7,0.5c0.6,0,1.4-0.1,2.3-0.2c0.9-0.1,1.7-0.4,2.2-0.8l-1.2,9.1c-1.3,0.4-2.6,0.7-3.9,0.9
			c-1.3,0.1-2.6,0.2-3.9,0.2c-1.9,0-3.5-0.2-5-0.6c-1.5-0.4-2.8-1-3.8-1.9c-1-0.9-1.8-2-2.3-3.3c-0.5-1.4-0.6-3-0.3-5l2.4-16.9h-7
			l1.2-8.8h7l1.5-10.5h10.9l-1.5,10.5h9.6L-597.8,52.7z"/>
		<path class="st2" d="M-539.9,43.9h10.5l-0.7,4.8h0.1c0.4-0.7,1-1.4,1.8-2c0.7-0.7,1.6-1.3,2.5-1.8c0.9-0.5,2-1,3.1-1.3
			c1.2-0.3,2.4-0.5,3.7-0.5c2.8,0,5,0.4,6.6,1.3c1.6,0.9,2.8,2,3.5,3.5c0.7,1.5,1.1,3.3,1.2,5.3c0,2-0.1,4.3-0.4,6.6l-2.7,19.6h-11
			l2.4-17.4c0.1-1,0.3-2.1,0.4-3.2c0.1-1.1,0-2.1-0.2-3c-0.2-0.9-0.7-1.7-1.4-2.3s-1.7-0.9-3.1-0.9c-1.4,0-2.6,0.3-3.5,0.8
			c-0.9,0.5-1.7,1.2-2.3,2c-0.6,0.9-1,1.8-1.3,2.9c-0.3,1.1-0.5,2.2-0.7,3.4l-2.5,17.7h-10.9L-539.9,43.9z"/>
		<path class="st2" d="M-470,73.2c-2,2.2-4.5,4-7.3,5.2c-2.8,1.2-5.7,1.8-8.6,1.8c-2.7,0-5.2-0.4-7.5-1.3c-2.3-0.9-4.2-2.1-5.7-3.8
			c-1.5-1.6-2.7-3.6-3.4-5.9c-0.7-2.3-0.9-4.8-0.5-7.7c0.4-2.8,1.3-5.4,2.6-7.7c1.3-2.3,3-4.2,5-5.9c2-1.6,4.3-2.9,6.8-3.8
			c2.5-0.9,5.2-1.3,7.9-1.3c2.5,0,4.8,0.4,6.7,1.3c1.9,0.9,3.5,2.1,4.7,3.8c1.2,1.6,2.1,3.6,2.5,5.9c0.5,2.3,0.5,4.8,0.1,7.7
			l-0.5,3.4h-25.4c0.1,2.1,0.9,3.8,2.2,5c1.3,1.2,3,1.9,5.1,1.9c1.8,0,3.4-0.4,4.7-1.2c1.3-0.8,2.6-1.8,3.7-3.1L-470,73.2z
			 M-477.1,57.6c0.3-1.8-0.1-3.4-1.2-4.7c-1.1-1.3-2.6-2-4.6-2c-1.2,0-2.3,0.2-3.3,0.6c-1,0.4-1.8,0.9-2.6,1.5
			c-0.7,0.6-1.3,1.3-1.8,2.1c-0.5,0.8-0.8,1.6-1,2.5H-477.1z"/>
		<g>
			<path class="st2" d="M-736,91.4c-0.3-0.4-0.7-0.7-1-0.8c-0.3-0.1-0.7-0.2-1.1-0.2c-0.6,0-1.1,0.1-1.5,0.3
				c-0.5,0.2-0.9,0.5-1.3,0.8c-0.4,0.3-0.7,0.7-0.9,1.2c-0.2,0.5-0.4,1-0.5,1.5c-0.1,0.6-0.1,1.1,0,1.6c0.1,0.5,0.3,0.9,0.6,1.2
				c0.3,0.4,0.6,0.6,1,0.8c0.4,0.2,0.9,0.3,1.5,0.3c0.4,0,0.9-0.1,1.3-0.3c0.4-0.2,0.9-0.5,1.3-1l1.4,1.1c-0.6,0.7-1.2,1.1-2,1.4
				c-0.7,0.3-1.5,0.5-2.3,0.5c-0.8,0-1.6-0.1-2.2-0.4c-0.7-0.3-1.2-0.6-1.6-1.1c-0.4-0.5-0.7-1.1-0.9-1.7c-0.2-0.7-0.2-1.4-0.1-2.3
				c0.1-0.8,0.4-1.6,0.7-2.3c0.4-0.7,0.8-1.3,1.4-1.8s1.2-0.9,1.9-1.1c0.7-0.3,1.5-0.4,2.3-0.4c0.7,0,1.4,0.1,1.9,0.4
				c0.6,0.3,1.1,0.7,1.5,1.3L-736,91.4z"/>
			<path class="st2" d="M-723.5,94.3c0.1-0.8,0.4-1.6,0.7-2.3c0.4-0.7,0.8-1.3,1.4-1.8s1.2-0.9,1.9-1.1c0.7-0.3,1.5-0.4,2.3-0.4
				c0.8,0,1.6,0.1,2.2,0.4c0.7,0.3,1.2,0.6,1.6,1.1c0.4,0.5,0.7,1.1,0.9,1.8c0.2,0.7,0.2,1.5,0.1,2.3c-0.1,0.8-0.4,1.6-0.7,2.3
				c-0.4,0.7-0.8,1.3-1.4,1.8c-0.6,0.5-1.2,0.9-1.9,1.1s-1.5,0.4-2.3,0.4c-0.8,0-1.6-0.1-2.2-0.4c-0.7-0.3-1.2-0.6-1.6-1.1
				c-0.4-0.5-0.7-1.1-0.9-1.7C-723.6,95.9-723.6,95.1-723.5,94.3z M-721.5,94.2c-0.1,0.6-0.1,1.1,0,1.6c0.1,0.5,0.3,0.9,0.6,1.2
				c0.3,0.4,0.6,0.6,1,0.8c0.4,0.2,0.9,0.3,1.5,0.3c0.6,0,1.1-0.1,1.5-0.3c0.5-0.2,0.9-0.5,1.3-0.8c0.4-0.4,0.7-0.8,0.9-1.2
				s0.4-1,0.5-1.6c0.1-0.5,0.1-1-0.1-1.5c-0.1-0.5-0.3-0.9-0.6-1.2c-0.3-0.3-0.6-0.6-1-0.8c-0.4-0.2-0.9-0.3-1.5-0.3
				s-1.1,0.1-1.5,0.3c-0.5,0.2-0.9,0.5-1.3,0.8c-0.4,0.3-0.7,0.7-0.9,1.2C-721.3,93.1-721.5,93.6-721.5,94.2z"/>
			<path class="st2" d="M-699.2,88.9h2.5l4,7.9h0l1.1-7.9h1.9l-1.5,10.6h-2.4l-4.1-8.1h0l-1.1,8.1h-1.9L-699.2,88.9z"/>
			<path class="st2" d="M-674.8,90.6h-3.3l0.2-1.7h8.4l-0.2,1.7h-3.3l-1.2,8.9h-1.9L-674.8,90.6z"/>
			<path class="st2" d="M-655.6,88.9h1.6l3.1,10.6h-2.2l-0.7-2.4h-4.6l-1.3,2.4h-2.1L-655.6,88.9z M-654.1,95.5l-1-4.3l-2.3,4.3
				H-654.1z"/>
			<path class="st2" d="M-630.8,91.4c-0.3-0.4-0.7-0.7-1-0.8c-0.3-0.1-0.7-0.2-1.1-0.2c-0.6,0-1.1,0.1-1.5,0.3
				c-0.5,0.2-0.9,0.5-1.3,0.8c-0.4,0.3-0.7,0.7-0.9,1.2c-0.2,0.5-0.4,1-0.5,1.5c-0.1,0.6-0.1,1.1,0,1.6c0.1,0.5,0.3,0.9,0.6,1.2
				c0.3,0.4,0.6,0.6,1,0.8c0.4,0.2,0.9,0.3,1.5,0.3c0.4,0,0.9-0.1,1.3-0.3c0.4-0.2,0.9-0.5,1.3-1l1.4,1.1c-0.6,0.7-1.2,1.1-2,1.4
				c-0.7,0.3-1.5,0.5-2.3,0.5c-0.8,0-1.6-0.1-2.2-0.4c-0.7-0.3-1.2-0.6-1.6-1.1c-0.4-0.5-0.7-1.1-0.9-1.7c-0.2-0.7-0.2-1.4-0.1-2.3
				c0.1-0.8,0.4-1.6,0.7-2.3c0.4-0.7,0.8-1.3,1.4-1.8s1.2-0.9,1.9-1.1c0.7-0.3,1.5-0.4,2.3-0.4c0.7,0,1.4,0.1,1.9,0.4
				c0.6,0.3,1.1,0.7,1.5,1.3L-630.8,91.4z"/>
			<path class="st2" d="M-615,90.6h-3.3l0.2-1.7h8.4l-0.2,1.7h-3.3l-1.2,8.9h-1.9L-615,90.6z"/>
			<path class="st2" d="M-575.9,91.4c-0.3-0.4-0.7-0.7-1-0.8c-0.3-0.1-0.7-0.2-1.1-0.2c-0.6,0-1.1,0.1-1.5,0.3
				c-0.5,0.2-0.9,0.5-1.3,0.8c-0.4,0.3-0.7,0.7-0.9,1.2c-0.2,0.5-0.4,1-0.5,1.5c-0.1,0.6-0.1,1.1,0,1.6c0.1,0.5,0.3,0.9,0.6,1.2
				c0.3,0.4,0.6,0.6,1,0.8c0.4,0.2,0.9,0.3,1.5,0.3c0.4,0,0.9-0.1,1.3-0.3c0.4-0.2,0.9-0.5,1.3-1l1.4,1.1c-0.6,0.7-1.2,1.1-2,1.4
				c-0.7,0.3-1.5,0.5-2.3,0.5c-0.8,0-1.6-0.1-2.2-0.4c-0.7-0.3-1.2-0.6-1.6-1.1c-0.4-0.5-0.7-1.1-0.9-1.7c-0.2-0.7-0.2-1.4-0.1-2.3
				c0.1-0.8,0.4-1.6,0.7-2.3c0.4-0.7,0.8-1.3,1.4-1.8s1.2-0.9,1.9-1.1c0.7-0.3,1.5-0.4,2.3-0.4c0.7,0,1.4,0.1,1.9,0.4
				c0.6,0.3,1.1,0.7,1.5,1.3L-575.9,91.4z"/>
			<path class="st2" d="M-562.1,88.9h7l-0.2,1.7h-5.1l-0.4,2.6h4.9l-0.2,1.7h-4.9l-0.4,2.9h5.4l-0.2,1.7h-7.3L-562.1,88.9z"/>
			<path class="st2" d="M-542.4,88.9h2.5l4,7.9h0l1.1-7.9h1.9l-1.5,10.6h-2.4l-4.1-8.1h0l-1.1,8.1h-1.9L-542.4,88.9z"/>
			<path class="st2" d="M-518.1,90.6h-3.3l0.2-1.7h8.4l-0.2,1.7h-3.3l-1.2,8.9h-1.9L-518.1,90.6z"/>
			<path class="st2" d="M-500.9,88.9h7l-0.2,1.7h-5.1l-0.4,2.6h4.9L-495,95h-4.9l-0.4,2.9h5.4l-0.2,1.7h-7.3L-500.9,88.9z"/>
			<path class="st2" d="M-481.2,88.9h3.7c0.5,0,1,0,1.5,0.1c0.5,0.1,0.9,0.3,1.2,0.5c0.3,0.2,0.6,0.5,0.8,0.9s0.2,0.9,0.1,1.5
				c-0.1,0.4-0.2,0.7-0.3,1.1c-0.2,0.3-0.4,0.6-0.6,0.9c-0.2,0.2-0.5,0.5-0.9,0.6s-0.7,0.3-1.1,0.3l2.2,4.7h-2.3l-1.8-4.5h-1.4
				l-0.6,4.5h-1.9L-481.2,88.9z M-478.5,93.4c0.3,0,0.5,0,0.8,0c0.3,0,0.5-0.1,0.8-0.2c0.2-0.1,0.4-0.2,0.6-0.4s0.3-0.5,0.3-0.8
				c0-0.3,0-0.6-0.1-0.8s-0.3-0.3-0.5-0.4c-0.2-0.1-0.4-0.2-0.7-0.2c-0.2,0-0.5,0-0.7,0h-1.6l-0.4,2.9H-478.5z"/>
		</g>
		<g>
			<path class="st2" d="M-558.9,55.4l-3.4,24h10.9l2.8-19.9C-551.5,57.7-555,56.3-558.9,55.4z"/>
			<path class="st2" d="M-547.5,52.4l1.2-8.5h-11l-0.7,4.8C-554.2,49.5-550.7,50.8-547.5,52.4z"/>
		</g>
		<g>
			<path class="st2" d="M-569,54.2c-2.5,0-4.9,0.2-7.3,0.6l-3.4,24.5h10.9l3.5-25C-566.5,54.3-567.7,54.2-569,54.2z"/>
			<path class="st2" d="M-569,47.6c1.6,0,3.1,0.1,4.6,0.2l3.3-23.6h-11l-3.3,23.8C-573.2,47.7-571.1,47.6-569,47.6z"/>
		</g>
		<g>
			<path class="st2" d="M-582.1,49.3l0.7-5.4h-11l-1.5,10.4C-590.3,52.1-586.4,50.4-582.1,49.3z"/>
			<path class="st2" d="M-595.1,64.1l-2.1,15.3h10.9l3.2-22.8C-588,58.3-592.3,60.9-595.1,64.1z"/>
		</g>
	</g>
</g>
<g>
	<polygon class="st0" points="-52.6,119 -390.5,119 -373.5,5 -35.6,5 	"/>
	<g>
		<path class="st2" d="M-347.7,43.9h10.5l-0.7,4.8h0.1c0.4-0.7,1-1.4,1.8-2c0.7-0.7,1.6-1.3,2.5-1.8c0.9-0.5,2-1,3.1-1.3
			c1.2-0.3,2.4-0.5,3.7-0.5c2.5,0,4.6,0.5,6.4,1.5c1.8,1,3,2.6,3.6,4.8c1.6-2.3,3.4-3.9,5.3-4.9c1.9-1,4.2-1.5,6.8-1.5
			c2.4,0,4.3,0.4,5.8,1.2c1.5,0.8,2.7,1.9,3.4,3.3c0.8,1.4,1.2,3,1.4,4.9c0.1,1.9,0.1,3.9-0.2,6l-2.9,21h-11l2.8-20.7
			c0.2-1.7,0.1-3.1-0.4-4.3c-0.5-1.2-1.7-1.8-3.5-1.8c-1.3,0-2.3,0.2-3.2,0.6c-0.9,0.4-1.7,1-2.3,1.7c-0.6,0.7-1.1,1.6-1.5,2.6
			c-0.3,1-0.6,2-0.7,3.1l-2.6,18.8h-11l2.6-18.8c0.1-0.6,0.2-1.4,0.3-2.3c0.1-0.9,0-1.8-0.1-2.6c-0.2-0.8-0.5-1.5-1.1-2.1
			c-0.6-0.6-1.5-0.9-2.8-0.9c-1.4,0-2.6,0.3-3.5,0.8c-0.9,0.5-1.7,1.2-2.3,2c-0.6,0.9-1,1.8-1.3,2.9c-0.3,1.1-0.5,2.2-0.7,3.4
			l-2.5,17.7h-10.9L-347.7,43.9z"/>
		<path class="st2" d="M-256.5,79.4H-267l0.7-4.8h-0.1c-0.5,0.7-1.1,1.4-1.8,2c-0.7,0.7-1.5,1.3-2.5,1.8c-0.9,0.5-2,1-3.2,1.3
			c-1.2,0.3-2.4,0.5-3.7,0.5c-2.8,0-5-0.4-6.6-1.3c-1.6-0.9-2.8-2-3.5-3.5c-0.7-1.5-1.1-3.3-1.2-5.3c0-2,0.1-4.3,0.4-6.6l2.8-19.6
			h11l-2.5,17.4c-0.1,1-0.3,2.1-0.4,3.2c-0.1,1.1,0,2.1,0.2,3c0.2,0.9,0.7,1.7,1.4,2.3c0.7,0.6,1.7,0.9,3.1,0.9
			c1.4,0,2.6-0.3,3.5-0.8c0.9-0.5,1.7-1.2,2.3-2c0.6-0.9,1-1.8,1.4-2.9c0.3-1.1,0.5-2.2,0.7-3.4l2.5-17.7h11L-256.5,79.4z"/>
		<path class="st2" d="M-242.3,24.2h11l-7.7,55.2H-250L-242.3,24.2z"/>
		<path class="st2" d="M-204.8,52.7h-9.6l-1.7,11.8c-0.1,1-0.2,1.9-0.2,2.7c0,0.8,0.1,1.5,0.4,2.1c0.3,0.6,0.7,1,1.4,1.4
			c0.7,0.3,1.6,0.5,2.7,0.5c0.6,0,1.4-0.1,2.3-0.2c0.9-0.1,1.7-0.4,2.2-0.8l-1.2,9.1c-1.3,0.4-2.6,0.7-3.9,0.9
			c-1.3,0.1-2.6,0.2-3.9,0.2c-1.9,0-3.5-0.2-5-0.6c-1.5-0.4-2.8-1-3.8-1.9c-1-0.9-1.8-2-2.3-3.3c-0.5-1.4-0.6-3-0.3-5l2.4-16.9h-7
			l1.2-8.8h7l1.5-10.5h10.9l-1.5,10.5h9.6L-204.8,52.7z"/>
		<path class="st2" d="M-146.9,43.9h10.5l-0.7,4.8h0.1c0.4-0.7,1-1.4,1.8-2c0.7-0.7,1.6-1.3,2.5-1.8c0.9-0.5,2-1,3.1-1.3
			c1.2-0.3,2.4-0.5,3.7-0.5c2.8,0,5,0.4,6.6,1.3c1.6,0.9,2.8,2,3.5,3.5c0.7,1.5,1.1,3.3,1.2,5.3c0,2-0.1,4.3-0.4,6.6l-2.7,19.6h-11
			l2.4-17.4c0.1-1,0.3-2.1,0.4-3.2c0.1-1.1,0-2.1-0.2-3c-0.2-0.9-0.7-1.7-1.4-2.3s-1.7-0.9-3.1-0.9c-1.4,0-2.6,0.3-3.5,0.8
			c-0.9,0.5-1.7,1.2-2.3,2c-0.6,0.9-1,1.8-1.3,2.9c-0.3,1.1-0.5,2.2-0.7,3.4l-2.5,17.7h-10.9L-146.9,43.9z"/>
		<path class="st2" d="M-77,73.2c-2,2.2-4.5,4-7.3,5.2c-2.8,1.2-5.7,1.8-8.6,1.8c-2.7,0-5.2-0.4-7.5-1.3c-2.3-0.9-4.2-2.1-5.7-3.8
			c-1.5-1.6-2.7-3.6-3.4-5.9c-0.7-2.3-0.9-4.8-0.5-7.7c0.4-2.8,1.3-5.4,2.6-7.7c1.3-2.3,3-4.2,5-5.9c2-1.6,4.3-2.9,6.8-3.8
			c2.5-0.9,5.2-1.3,7.9-1.3c2.5,0,4.8,0.4,6.7,1.3c1.9,0.9,3.5,2.1,4.7,3.8c1.2,1.6,2.1,3.6,2.5,5.9c0.5,2.3,0.5,4.8,0.1,7.7
			l-0.5,3.4h-25.4c0.1,2.1,0.9,3.8,2.2,5c1.3,1.2,3,1.9,5.1,1.9c1.8,0,3.4-0.4,4.7-1.2c1.3-0.8,2.6-1.8,3.7-3.1L-77,73.2z
			 M-84.1,57.6c0.3-1.8-0.1-3.4-1.2-4.7c-1.1-1.3-2.6-2-4.6-2c-1.2,0-2.3,0.2-3.3,0.6c-1,0.4-1.8,0.9-2.6,1.5
			c-0.7,0.6-1.3,1.3-1.8,2.1c-0.5,0.8-0.8,1.6-1,2.5H-84.1z"/>
		<g>
			<path class="st2" d="M-343.1,91.4c-0.3-0.4-0.7-0.7-1-0.8c-0.3-0.1-0.7-0.2-1.1-0.2c-0.6,0-1.1,0.1-1.5,0.3
				c-0.5,0.2-0.9,0.5-1.3,0.8c-0.4,0.3-0.7,0.7-0.9,1.2c-0.2,0.5-0.4,1-0.5,1.5c-0.1,0.6-0.1,1.1,0,1.6c0.1,0.5,0.3,0.9,0.6,1.2
				c0.3,0.4,0.6,0.6,1,0.8c0.4,0.2,0.9,0.3,1.5,0.3c0.4,0,0.9-0.1,1.3-0.3c0.4-0.2,0.9-0.5,1.3-1l1.4,1.1c-0.6,0.7-1.2,1.1-2,1.4
				c-0.7,0.3-1.5,0.5-2.3,0.5c-0.8,0-1.6-0.1-2.2-0.4c-0.7-0.3-1.2-0.6-1.6-1.1c-0.4-0.5-0.7-1.1-0.9-1.7c-0.2-0.7-0.2-1.4-0.1-2.3
				c0.1-0.8,0.4-1.6,0.7-2.3c0.4-0.7,0.8-1.3,1.4-1.8s1.2-0.9,1.9-1.1c0.7-0.3,1.5-0.4,2.3-0.4c0.7,0,1.4,0.1,1.9,0.4
				c0.6,0.3,1.1,0.7,1.5,1.3L-343.1,91.4z"/>
			<path class="st2" d="M-330.5,94.3c0.1-0.8,0.4-1.6,0.7-2.3c0.4-0.7,0.8-1.3,1.4-1.8s1.2-0.9,1.9-1.1c0.7-0.3,1.5-0.4,2.3-0.4
				c0.8,0,1.6,0.1,2.2,0.4c0.7,0.3,1.2,0.6,1.6,1.1c0.4,0.5,0.7,1.1,0.9,1.8c0.2,0.7,0.2,1.5,0.1,2.3c-0.1,0.8-0.4,1.6-0.7,2.3
				c-0.4,0.7-0.8,1.3-1.4,1.8c-0.6,0.5-1.2,0.9-1.9,1.1s-1.5,0.4-2.3,0.4c-0.8,0-1.6-0.1-2.2-0.4c-0.7-0.3-1.2-0.6-1.6-1.1
				c-0.4-0.5-0.7-1.1-0.9-1.7C-330.6,95.9-330.7,95.1-330.5,94.3z M-328.6,94.2c-0.1,0.6-0.1,1.1,0,1.6c0.1,0.5,0.3,0.9,0.6,1.2
				c0.3,0.4,0.6,0.6,1,0.8c0.4,0.2,0.9,0.3,1.5,0.3c0.6,0,1.1-0.1,1.5-0.3c0.5-0.2,0.9-0.5,1.3-0.8c0.4-0.4,0.7-0.8,0.9-1.2
				s0.4-1,0.5-1.6c0.1-0.5,0.1-1-0.1-1.5c-0.1-0.5-0.3-0.9-0.6-1.2c-0.3-0.3-0.6-0.6-1-0.8c-0.4-0.2-0.9-0.3-1.5-0.3
				s-1.1,0.1-1.5,0.3c-0.5,0.2-0.9,0.5-1.3,0.8c-0.4,0.3-0.7,0.7-0.9,1.2C-328.3,93.1-328.5,93.6-328.6,94.2z"/>
			<path class="st2" d="M-306.2,88.9h2.5l4,7.9h0l1.1-7.9h1.9l-1.5,10.6h-2.4l-4.1-8.1h0l-1.1,8.1h-1.9L-306.2,88.9z"/>
			<path class="st2" d="M-281.9,90.6h-3.3l0.2-1.7h8.4l-0.2,1.7h-3.3l-1.2,8.9h-1.9L-281.9,90.6z"/>
			<path class="st2" d="M-262.6,88.9h1.6l3.1,10.6h-2.2l-0.7-2.4h-4.6l-1.3,2.4h-2.1L-262.6,88.9z M-261.2,95.5l-1-4.3l-2.3,4.3
				H-261.2z"/>
			<path class="st2" d="M-237.8,91.4c-0.3-0.4-0.7-0.7-1-0.8c-0.3-0.1-0.7-0.2-1.1-0.2c-0.6,0-1.1,0.1-1.5,0.3
				c-0.5,0.2-0.9,0.5-1.3,0.8c-0.4,0.3-0.7,0.7-0.9,1.2c-0.2,0.5-0.4,1-0.5,1.5c-0.1,0.6-0.1,1.1,0,1.6c0.1,0.5,0.3,0.9,0.6,1.2
				c0.3,0.4,0.6,0.6,1,0.8c0.4,0.2,0.9,0.3,1.5,0.3c0.4,0,0.9-0.1,1.3-0.3c0.4-0.2,0.9-0.5,1.3-1l1.4,1.1c-0.6,0.7-1.2,1.1-2,1.4
				c-0.7,0.3-1.5,0.5-2.3,0.5c-0.8,0-1.6-0.1-2.2-0.4c-0.7-0.3-1.2-0.6-1.6-1.1c-0.4-0.5-0.7-1.1-0.9-1.7c-0.2-0.7-0.2-1.4-0.1-2.3
				c0.1-0.8,0.4-1.6,0.7-2.3c0.4-0.7,0.8-1.3,1.4-1.8s1.2-0.9,1.9-1.1c0.7-0.3,1.5-0.4,2.3-0.4c0.7,0,1.4,0.1,1.9,0.4
				c0.6,0.3,1.1,0.7,1.5,1.3L-237.8,91.4z"/>
			<path class="st2" d="M-222,90.6h-3.3l0.2-1.7h8.4l-0.2,1.7h-3.3l-1.2,8.9h-1.9L-222,90.6z"/>
			<path class="st2" d="M-183,91.4c-0.3-0.4-0.7-0.7-1-0.8c-0.3-0.1-0.7-0.2-1.1-0.2c-0.6,0-1.1,0.1-1.5,0.3
				c-0.5,0.2-0.9,0.5-1.3,0.8c-0.4,0.3-0.7,0.7-0.9,1.2c-0.2,0.5-0.4,1-0.5,1.5c-0.1,0.6-0.1,1.1,0,1.6c0.1,0.5,0.3,0.9,0.6,1.2
				c0.3,0.4,0.6,0.6,1,0.8c0.4,0.2,0.9,0.3,1.5,0.3c0.4,0,0.9-0.1,1.3-0.3c0.4-0.2,0.9-0.5,1.3-1l1.4,1.1c-0.6,0.7-1.2,1.1-2,1.4
				c-0.7,0.3-1.5,0.5-2.3,0.5c-0.8,0-1.6-0.1-2.2-0.4c-0.7-0.3-1.2-0.6-1.6-1.1c-0.4-0.5-0.7-1.1-0.9-1.7c-0.2-0.7-0.2-1.4-0.1-2.3
				c0.1-0.8,0.4-1.6,0.7-2.3c0.4-0.7,0.8-1.3,1.4-1.8s1.2-0.9,1.9-1.1c0.7-0.3,1.5-0.4,2.3-0.4c0.7,0,1.4,0.1,1.9,0.4
				c0.6,0.3,1.1,0.7,1.5,1.3L-183,91.4z"/>
			<path class="st2" d="M-169.1,88.9h7l-0.2,1.7h-5.1l-0.4,2.6h4.9l-0.2,1.7h-4.9l-0.4,2.9h5.4l-0.2,1.7h-7.3L-169.1,88.9z"/>
			<path class="st2" d="M-149.5,88.9h2.5l4,7.9h0l1.1-7.9h1.9l-1.5,10.6h-2.4l-4.1-8.1h0l-1.1,8.1h-1.9L-149.5,88.9z"/>
			<path class="st2" d="M-125.1,90.6h-3.3l0.2-1.7h8.4l-0.2,1.7h-3.3l-1.2,8.9h-1.9L-125.1,90.6z"/>
			<path class="st2" d="M-107.9,88.9h7l-0.2,1.7h-5.1l-0.4,2.6h4.9L-102,95h-4.9l-0.4,2.9h5.4l-0.2,1.7h-7.3L-107.9,88.9z"/>
			<path class="st2" d="M-88.2,88.9h3.7c0.5,0,1,0,1.5,0.1c0.5,0.1,0.9,0.3,1.2,0.5c0.3,0.2,0.6,0.5,0.8,0.9s0.2,0.9,0.1,1.5
				c-0.1,0.4-0.2,0.7-0.3,1.1c-0.2,0.3-0.4,0.6-0.6,0.9c-0.2,0.2-0.5,0.5-0.9,0.6s-0.7,0.3-1.1,0.3l2.2,4.7H-84l-1.8-4.5h-1.4
				l-0.6,4.5h-1.9L-88.2,88.9z M-85.5,93.4c0.3,0,0.5,0,0.8,0c0.3,0,0.5-0.1,0.8-0.2c0.2-0.1,0.4-0.2,0.6-0.4s0.3-0.5,0.3-0.8
				c0-0.3,0-0.6-0.1-0.8s-0.3-0.3-0.5-0.4c-0.2-0.1-0.4-0.2-0.7-0.2c-0.2,0-0.5,0-0.7,0h-1.6l-0.4,2.9H-85.5z"/>
		</g>
		<g>
			<path class="st2" d="M-165.9,55.4l-3.4,24h10.9l2.8-19.9C-158.5,57.7-162,56.3-165.9,55.4z"/>
			<path class="st2" d="M-154.5,52.4l1.2-8.5h-11l-0.7,4.8C-161.2,49.5-157.7,50.8-154.5,52.4z"/>
		</g>
		<g>
			<path class="st2" d="M-176,54.2c-2.5,0-4.9,0.2-7.3,0.6l-3.4,24.5h10.9l3.5-25C-173.5,54.3-174.8,54.2-176,54.2z"/>
			<path class="st2" d="M-176,47.6c1.6,0,3.1,0.1,4.6,0.2l3.3-23.6h-11l-3.3,23.8C-180.3,47.7-178.1,47.6-176,47.6z"/>
		</g>
		<g>
			<path class="st2" d="M-189.1,49.3l0.7-5.4h-11l-1.5,10.4C-197.4,52.1-193.4,50.4-189.1,49.3z"/>
			<path class="st2" d="M-202.1,64.1l-2.1,15.3h10.9l3.2-22.8C-195.1,58.3-199.3,60.9-202.1,64.1z"/>
		</g>
	</g>
</g>
<g>
	<polygon points="343.4,119 5.5,119 22.5,5 360.4,5 	"/>
	<g>
		<path class="st2" d="M48.3,43.9h10.5l-0.7,4.8h0.1c0.4-0.7,1-1.4,1.8-2c0.7-0.7,1.6-1.3,2.5-1.8c0.9-0.5,2-1,3.1-1.3
			c1.2-0.3,2.4-0.5,3.7-0.5c2.5,0,4.6,0.5,6.4,1.5c1.8,1,3,2.6,3.6,4.8c1.6-2.3,3.4-3.9,5.3-4.9c1.9-1,4.2-1.5,6.8-1.5
			c2.4,0,4.3,0.4,5.8,1.2c1.5,0.8,2.7,1.9,3.4,3.3c0.8,1.4,1.2,3,1.4,4.9c0.1,1.9,0.1,3.9-0.2,6l-2.9,21h-11L91,58.7
			c0.2-1.7,0.1-3.1-0.4-4.3c-0.5-1.2-1.7-1.8-3.5-1.8c-1.3,0-2.3,0.2-3.2,0.6c-0.9,0.4-1.7,1-2.3,1.7c-0.6,0.7-1.1,1.6-1.5,2.6
			c-0.3,1-0.6,2-0.7,3.1l-2.6,18.8h-11l2.6-18.8c0.1-0.6,0.2-1.4,0.3-2.3c0.1-0.9,0-1.8-0.1-2.6c-0.2-0.8-0.5-1.5-1.1-2.1
			c-0.6-0.6-1.5-0.9-2.8-0.9c-1.4,0-2.6,0.3-3.5,0.8c-0.9,0.5-1.7,1.2-2.3,2c-0.6,0.9-1,1.8-1.3,2.9c-0.3,1.1-0.5,2.2-0.7,3.4
			l-2.5,17.7H43.3L48.3,43.9z"/>
		<path class="st2" d="M139.5,79.4H129l0.7-4.8h-0.1c-0.5,0.7-1.1,1.4-1.8,2c-0.7,0.7-1.5,1.3-2.5,1.8c-0.9,0.5-2,1-3.2,1.3
			c-1.2,0.3-2.4,0.5-3.7,0.5c-2.8,0-5-0.4-6.6-1.3c-1.6-0.9-2.8-2-3.5-3.5c-0.7-1.5-1.1-3.3-1.2-5.3c0-2,0.1-4.3,0.4-6.6l2.8-19.6
			h11l-2.5,17.4c-0.1,1-0.3,2.1-0.4,3.2c-0.1,1.1,0,2.1,0.2,3c0.2,0.9,0.7,1.7,1.4,2.3c0.7,0.6,1.7,0.9,3.1,0.9
			c1.4,0,2.6-0.3,3.5-0.8c0.9-0.5,1.7-1.2,2.3-2c0.6-0.9,1-1.8,1.4-2.9c0.3-1.1,0.5-2.2,0.7-3.4l2.5-17.7h11L139.5,79.4z"/>
		<path class="st2" d="M153.7,24.2h11l-7.7,55.2h-10.9L153.7,24.2z"/>
		<path class="st2" d="M191.2,52.7h-9.6l-1.7,11.8c-0.1,1-0.2,1.9-0.2,2.7c0,0.8,0.1,1.5,0.4,2.1c0.3,0.6,0.7,1,1.4,1.4
			c0.7,0.3,1.6,0.5,2.7,0.5c0.6,0,1.4-0.1,2.3-0.2c0.9-0.1,1.7-0.4,2.2-0.8l-1.2,9.1c-1.3,0.4-2.6,0.7-3.9,0.9
			c-1.3,0.1-2.6,0.2-3.9,0.2c-1.9,0-3.5-0.2-5-0.6c-1.5-0.4-2.8-1-3.8-1.9c-1-0.9-1.8-2-2.3-3.3c-0.5-1.4-0.6-3-0.3-5l2.4-16.9h-7
			l1.2-8.8h7l1.5-10.5h10.9l-1.5,10.5h9.6L191.2,52.7z"/>
		<path class="st2" d="M249.1,43.9h10.5l-0.7,4.8h0.1c0.4-0.7,1-1.4,1.8-2c0.7-0.7,1.6-1.3,2.5-1.8c0.9-0.5,2-1,3.1-1.3
			c1.2-0.3,2.4-0.5,3.7-0.5c2.8,0,5,0.4,6.6,1.3c1.6,0.9,2.8,2,3.5,3.5c0.7,1.5,1.1,3.3,1.2,5.3c0,2-0.1,4.3-0.4,6.6l-2.7,19.6h-11
			l2.4-17.4c0.1-1,0.3-2.1,0.4-3.2c0.1-1.1,0-2.1-0.2-3c-0.2-0.9-0.7-1.7-1.4-2.3s-1.7-0.9-3.1-0.9c-1.4,0-2.6,0.3-3.5,0.8
			c-0.9,0.5-1.7,1.2-2.3,2c-0.6,0.9-1,1.8-1.3,2.9c-0.3,1.1-0.5,2.2-0.7,3.4l-2.5,17.7h-10.9L249.1,43.9z"/>
		<path class="st2" d="M319,73.2c-2,2.2-4.5,4-7.3,5.2c-2.8,1.2-5.7,1.8-8.6,1.8c-2.7,0-5.2-0.4-7.5-1.3c-2.3-0.9-4.2-2.1-5.7-3.8
			c-1.5-1.6-2.7-3.6-3.4-5.9c-0.7-2.3-0.9-4.8-0.5-7.7c0.4-2.8,1.3-5.4,2.6-7.7c1.3-2.3,3-4.2,5-5.9c2-1.6,4.3-2.9,6.8-3.8
			c2.5-0.9,5.2-1.3,7.9-1.3c2.5,0,4.8,0.4,6.7,1.3c1.9,0.9,3.5,2.1,4.7,3.8c1.2,1.6,2.1,3.6,2.5,5.9c0.5,2.3,0.5,4.8,0.1,7.7
			l-0.5,3.4h-25.4c0.1,2.1,0.9,3.8,2.2,5c1.3,1.2,3,1.9,5.1,1.9c1.8,0,3.4-0.4,4.7-1.2c1.3-0.8,2.6-1.8,3.7-3.1L319,73.2z
			 M311.9,57.6c0.3-1.8-0.1-3.4-1.2-4.7c-1.1-1.3-2.6-2-4.6-2c-1.2,0-2.3,0.2-3.3,0.6c-1,0.4-1.8,0.9-2.6,1.5
			c-0.7,0.6-1.3,1.3-1.8,2.1c-0.5,0.8-0.8,1.6-1,2.5H311.9z"/>
		<g>
			<path class="st2" d="M52.9,91.4c-0.3-0.4-0.7-0.7-1-0.8c-0.3-0.1-0.7-0.2-1.1-0.2c-0.6,0-1.1,0.1-1.5,0.3
				c-0.5,0.2-0.9,0.5-1.3,0.8c-0.4,0.3-0.7,0.7-0.9,1.2c-0.2,0.5-0.4,1-0.5,1.5c-0.1,0.6-0.1,1.1,0,1.6c0.1,0.5,0.3,0.9,0.6,1.2
				c0.3,0.4,0.6,0.6,1,0.8c0.4,0.2,0.9,0.3,1.5,0.3c0.4,0,0.9-0.1,1.3-0.3c0.4-0.2,0.9-0.5,1.3-1l1.4,1.1c-0.6,0.7-1.2,1.1-2,1.4
				c-0.7,0.3-1.5,0.5-2.3,0.5c-0.8,0-1.6-0.1-2.2-0.4c-0.7-0.3-1.2-0.6-1.6-1.1c-0.4-0.5-0.7-1.1-0.9-1.7c-0.2-0.7-0.2-1.4-0.1-2.3
				c0.1-0.8,0.4-1.6,0.7-2.3c0.4-0.7,0.8-1.3,1.4-1.8s1.2-0.9,1.9-1.1c0.7-0.3,1.5-0.4,2.3-0.4c0.7,0,1.4,0.1,1.9,0.4
				c0.6,0.3,1.1,0.7,1.5,1.3L52.9,91.4z"/>
			<path class="st2" d="M65.4,94.3c0.1-0.8,0.4-1.6,0.7-2.3c0.4-0.7,0.8-1.3,1.4-1.8s1.2-0.9,1.9-1.1c0.7-0.3,1.5-0.4,2.3-0.4
				c0.8,0,1.6,0.1,2.2,0.4c0.7,0.3,1.2,0.6,1.6,1.1c0.4,0.5,0.7,1.1,0.9,1.8c0.2,0.7,0.2,1.5,0.1,2.3c-0.1,0.8-0.4,1.6-0.7,2.3
				c-0.4,0.7-0.8,1.3-1.4,1.8c-0.6,0.5-1.2,0.9-1.9,1.1s-1.5,0.4-2.3,0.4c-0.8,0-1.6-0.1-2.2-0.4c-0.7-0.3-1.2-0.6-1.6-1.1
				c-0.4-0.5-0.7-1.1-0.9-1.7C65.3,95.9,65.3,95.1,65.4,94.3z M67.4,94.2c-0.1,0.6-0.1,1.1,0,1.6c0.1,0.5,0.3,0.9,0.6,1.2
				c0.3,0.4,0.6,0.6,1,0.8c0.4,0.2,0.9,0.3,1.5,0.3c0.6,0,1.1-0.1,1.5-0.3c0.5-0.2,0.9-0.5,1.3-0.8c0.4-0.4,0.7-0.8,0.9-1.2
				s0.4-1,0.5-1.6c0.1-0.5,0.1-1-0.1-1.5c-0.1-0.5-0.3-0.9-0.6-1.2c-0.3-0.3-0.6-0.6-1-0.8c-0.4-0.2-0.9-0.3-1.5-0.3
				s-1.1,0.1-1.5,0.3c-0.5,0.2-0.9,0.5-1.3,0.8c-0.4,0.3-0.7,0.7-0.9,1.2C67.7,93.1,67.5,93.6,67.4,94.2z"/>
			<path class="st2" d="M89.7,88.9h2.5l4,7.9h0l1.1-7.9h1.9l-1.5,10.6h-2.4l-4.1-8.1h0l-1.1,8.1h-1.9L89.7,88.9z"/>
			<path class="st2" d="M114.1,90.6h-3.3l0.2-1.7h8.4l-0.2,1.7H116l-1.2,8.9h-1.9L114.1,90.6z"/>
			<path class="st2" d="M133.4,88.9h1.6l3.1,10.6h-2.2l-0.7-2.4h-4.6l-1.3,2.4h-2.1L133.4,88.9z M134.8,95.5l-1-4.3l-2.3,4.3H134.8z
				"/>
			<path class="st2" d="M158.2,91.4c-0.3-0.4-0.7-0.7-1-0.8c-0.3-0.1-0.7-0.2-1.1-0.2c-0.6,0-1.1,0.1-1.5,0.3
				c-0.5,0.2-0.9,0.5-1.3,0.8c-0.4,0.3-0.7,0.7-0.9,1.2c-0.2,0.5-0.4,1-0.5,1.5c-0.1,0.6-0.1,1.1,0,1.6c0.1,0.5,0.3,0.9,0.6,1.2
				c0.3,0.4,0.6,0.6,1,0.8c0.4,0.2,0.9,0.3,1.5,0.3c0.4,0,0.9-0.1,1.3-0.3c0.4-0.2,0.9-0.5,1.3-1l1.4,1.1c-0.6,0.7-1.2,1.1-2,1.4
				c-0.7,0.3-1.5,0.5-2.3,0.5c-0.8,0-1.6-0.1-2.2-0.4c-0.7-0.3-1.2-0.6-1.6-1.1c-0.4-0.5-0.7-1.1-0.9-1.7c-0.2-0.7-0.2-1.4-0.1-2.3
				c0.1-0.8,0.4-1.6,0.7-2.3c0.4-0.7,0.8-1.3,1.4-1.8s1.2-0.9,1.9-1.1c0.7-0.3,1.5-0.4,2.3-0.4c0.7,0,1.4,0.1,1.9,0.4
				c0.6,0.3,1.1,0.7,1.5,1.3L158.2,91.4z"/>
			<path class="st2" d="M174,90.6h-3.3l0.2-1.7h8.4l-0.2,1.7h-3.3l-1.2,8.9h-1.9L174,90.6z"/>
			<path class="st2" d="M213,91.4c-0.3-0.4-0.7-0.7-1-0.8c-0.3-0.1-0.7-0.2-1.1-0.2c-0.6,0-1.1,0.1-1.5,0.3
				c-0.5,0.2-0.9,0.5-1.3,0.8c-0.4,0.3-0.7,0.7-0.9,1.2c-0.2,0.5-0.4,1-0.5,1.5c-0.1,0.6-0.1,1.1,0,1.6c0.1,0.5,0.3,0.9,0.6,1.2
				c0.3,0.4,0.6,0.6,1,0.8c0.4,0.2,0.9,0.3,1.5,0.3c0.4,0,0.9-0.1,1.3-0.3c0.4-0.2,0.9-0.5,1.3-1l1.4,1.1c-0.6,0.7-1.2,1.1-2,1.4
				c-0.7,0.3-1.5,0.5-2.3,0.5c-0.8,0-1.6-0.1-2.2-0.4c-0.7-0.3-1.2-0.6-1.6-1.1c-0.4-0.5-0.7-1.1-0.9-1.7c-0.2-0.7-0.2-1.4-0.1-2.3
				c0.1-0.8,0.4-1.6,0.7-2.3c0.4-0.7,0.8-1.3,1.4-1.8s1.2-0.9,1.9-1.1c0.7-0.3,1.5-0.4,2.3-0.4c0.7,0,1.4,0.1,1.9,0.4
				c0.6,0.3,1.1,0.7,1.5,1.3L213,91.4z"/>
			<path class="st2" d="M226.8,88.9h7l-0.2,1.7h-5.1l-0.4,2.6h4.9l-0.2,1.7h-4.9l-0.4,2.9h5.4l-0.2,1.7h-7.3L226.8,88.9z"/>
			<path class="st2" d="M246.5,88.9h2.5l4,7.9h0l1.1-7.9h1.9l-1.5,10.6h-2.4l-4.1-8.1h0l-1.1,8.1H245L246.5,88.9z"/>
			<path class="st2" d="M270.9,90.6h-3.3l0.2-1.7h8.4l-0.2,1.7h-3.3l-1.2,8.9h-1.9L270.9,90.6z"/>
			<path class="st2" d="M288.1,88.9h7l-0.2,1.7h-5.1l-0.4,2.6h4.9L294,95h-4.9l-0.4,2.9h5.4l-0.2,1.7h-7.3L288.1,88.9z"/>
			<path class="st2" d="M307.7,88.9h3.7c0.5,0,1,0,1.5,0.1c0.5,0.1,0.9,0.3,1.2,0.5c0.3,0.2,0.6,0.5,0.8,0.9s0.2,0.9,0.1,1.5
				c-0.1,0.4-0.2,0.7-0.3,1.1c-0.2,0.3-0.4,0.6-0.6,0.9c-0.2,0.2-0.5,0.5-0.9,0.6s-0.7,0.3-1.1,0.3l2.2,4.7H312l-1.8-4.5h-1.4
				l-0.6,4.5h-1.9L307.7,88.9z M310.5,93.4c0.3,0,0.5,0,0.8,0c0.3,0,0.5-0.1,0.8-0.2c0.2-0.1,0.4-0.2,0.6-0.4s0.3-0.5,0.3-0.8
				c0-0.3,0-0.6-0.1-0.8s-0.3-0.3-0.5-0.4c-0.2-0.1-0.4-0.2-0.7-0.2c-0.2,0-0.5,0-0.7,0h-1.6l-0.4,2.9H310.5z"/>
		</g>
		<g>
			<path class="st2" d="M230.1,55.4l-3.4,24h10.9l2.8-19.9C237.5,57.7,233.9,56.3,230.1,55.4z"/>
			<path class="st2" d="M241.5,52.4l1.2-8.5h-11l-0.7,4.8C234.8,49.5,238.3,50.8,241.5,52.4z"/>
		</g>
		<g>
			<path class="st2" d="M220,54.2c-2.5,0-4.9,0.2-7.3,0.6l-3.4,24.5h10.9l3.5-25C222.5,54.3,221.2,54.2,220,54.2z"/>
			<path class="st2" d="M220,47.6c1.6,0,3.1,0.1,4.6,0.2l3.3-23.6h-11L213.6,48C215.7,47.7,217.8,47.6,220,47.6z"/>
		</g>
		<g>
			<path class="st2" d="M206.9,49.3l0.7-5.4h-11l-1.5,10.4C198.6,52.1,202.6,50.4,206.9,49.3z"/>
			<path class="st2" d="M193.9,64.1l-2.1,15.3h10.9l3.2-22.8C200.9,58.3,196.7,60.9,193.9,64.1z"/>
		</g>
	</g>
</g>
</svg>
